<svg width="24" height="23" viewBox="0 0 24 23" fill="none" xmlns="http://www.w3.org/2000/svg">
<path d="M21 13.166C21.9201 13.166 22.6661 12.4201 22.6661 11.5C22.6661 10.5799 21.9201 9.83398 21 9.83398L21 13.166ZM3.0487 9.83398C2.12858 9.83398 1.38268 10.5799 1.38268 11.5C1.38268 12.4201 2.12858 13.166 3.0487 13.166L3.0487 9.83398ZM10.3583 20.4757C10.3583 21.3958 11.1042 22.1417 12.0244 22.1417C12.9445 22.1417 13.6904 21.3958 13.6904 20.4757L10.3583 20.4757ZM13.6904 2.52434C13.6904 1.60422 12.9445 0.858314 12.0244 0.858314C11.1042 0.858314 10.3583 1.60422 10.3583 2.52434L13.6904 2.52434ZM21 9.83398L12.0244 9.83398L12.0244 13.166L21 13.166L21 9.83398ZM12.0244 9.83398L3.0487 9.83398L3.0487 13.166L12.0244 13.166L12.0244 9.83398ZM10.3583 11.5L10.3583 20.4757L13.6904 20.4757L13.6904 11.5L10.3583 11.5ZM13.6904 11.5L13.6904 2.52434L10.3583 2.52434L10.3583 11.5L13.6904 11.5Z" fill="#FDFAF9"/>
</svg>
