<svg width="19" height="17" viewBox="0 0 19 17" fill="none" xmlns="http://www.w3.org/2000/svg">
<path d="M18.1405 12.2021L11.8611 1.79487C11.6072 1.3979 11.2574 1.07121 10.8439 0.844914C10.4304 0.618617 9.96656 0.5 9.49513 0.5C9.0237 0.5 8.55985 0.618617 8.14636 0.844914C7.73287 1.07121 7.38304 1.3979 7.12913 1.79487L0.849804 12.2021C0.627984 12.5717 0.50742 12.9931 0.500234 13.4239C0.493049 13.8548 0.599494 14.28 0.808869 14.6567C1.05094 15.0807 1.40132 15.4329 1.8242 15.6773C2.24709 15.9217 2.72732 16.0495 3.21581 16.0476H15.7745C16.2597 16.0528 16.7378 15.9299 17.1604 15.6915C17.583 15.453 17.9352 15.1074 18.1814 14.6894C18.3969 14.3088 18.5068 13.8775 18.4996 13.4402C18.4924 13.0029 18.3684 12.5755 18.1405 12.2021ZM9.49513 12.7749C9.33321 12.7749 9.17492 12.7269 9.04029 12.637C8.90566 12.5471 8.80073 12.4193 8.73876 12.2698C8.6768 12.1203 8.66058 11.9558 8.69217 11.7971C8.72376 11.6384 8.80174 11.4926 8.91623 11.3781C9.03073 11.2637 9.1766 11.1858 9.33541 11.1542C9.49422 11.1227 9.65883 11.1389 9.80843 11.2008C9.95802 11.2627 10.0859 11.3676 10.1758 11.5021C10.2658 11.6367 10.3138 11.7949 10.3138 11.9567C10.3138 12.1737 10.2276 12.3818 10.074 12.5352C9.92049 12.6887 9.71226 12.7749 9.49513 12.7749ZM10.3138 9.50215C10.3138 9.71914 10.2276 9.92725 10.074 10.0807C9.92049 10.2341 9.71226 10.3203 9.49513 10.3203C9.278 10.3203 9.06976 10.2341 8.91623 10.0807C8.7627 9.92725 8.67644 9.71914 8.67644 9.50215V6.22942C8.67644 6.01242 8.7627 5.80432 8.91623 5.65088C9.06976 5.49744 9.278 5.41124 9.49513 5.41124C9.71226 5.41124 9.92049 5.49744 10.074 5.65088C10.2276 5.80432 10.3138 6.01242 10.3138 6.22942V9.50215Z" fill="#222123"/>
</svg>
