<svg width="24" height="25" viewBox="0 0 24 25" fill="none" xmlns="http://www.w3.org/2000/svg">
<path d="M8.55846 9.30123V12.8988H12.7174C12.7177 11.8983 12.3572 10.9312 11.7021 10.175C11.0471 9.4187 10.1414 8.92393 9.15111 8.78135C8.83919 8.73457 8.55846 8.98411 8.55846 9.30123ZM11.8441 15.9608C12.4104 15.2344 12.7178 14.3397 12.7174 13.4186H5.14808L4.79457 12.6752C4.75279 12.5865 4.68659 12.5115 4.60373 12.459C4.52086 12.4065 4.42477 12.3787 4.32668 12.3789H3.35972C3.07379 12.3789 2.83984 12.6128 2.83984 12.8988C2.83984 13.1847 3.07379 13.4186 3.35972 13.4186H3.99396C3.99396 13.4186 4.97653 15.5345 5.0961 15.7165C4.73886 15.9085 4.45591 16.2143 4.29206 16.5853C4.12821 16.9563 4.09283 17.3714 4.19152 17.7648C4.34748 18.4198 4.88815 18.9449 5.54319 19.0905C6.63492 19.3296 7.61229 18.5914 7.75265 17.5776H8.83399C8.86944 17.8256 8.95573 18.0635 9.08745 18.2766C9.21917 18.4896 9.39348 18.6732 9.59945 18.8157C9.80543 18.9582 10.0386 19.0566 10.2844 19.1048C10.5302 19.153 10.7833 19.1499 11.0279 19.0956C11.3549 19.0238 11.6556 18.8629 11.8969 18.6308C12.1382 18.3986 12.3106 18.1043 12.3951 17.7804C12.5771 17.0577 12.3223 16.3871 11.8441 15.9608ZM5.95909 18.0975C5.52759 18.0975 5.17928 17.7492 5.17928 17.3177C5.17928 16.8862 5.52759 16.5379 5.95909 16.5379C6.39058 16.5379 6.7389 16.8862 6.7389 17.3177C6.7389 17.7492 6.39058 18.0975 5.95909 18.0975ZM10.638 18.0975C10.2065 18.0975 9.85814 17.7492 9.85814 17.3177C9.85814 16.8862 10.2065 16.5379 10.638 16.5379C11.0694 16.5379 11.4178 16.8862 11.4178 17.3177C11.4178 17.7492 11.0694 18.0975 10.638 18.0975Z" fill="#222123"/>
<g clip-path="url(#clip0)">
<path d="M14.7639 6.71579C14.7639 5.60249 15.6675 4.70001 16.7822 4.70001C17.8969 4.70001 18.8005 5.60249 18.8005 6.71579C18.8005 7.82906 17.8969 8.73156 16.7822 8.73156C15.6675 8.73156 14.7639 7.82906 14.7639 6.71579ZM21.9015 6.75423C21.5512 6.40435 20.9833 6.40435 20.633 6.75423L18.2047 9.17951H15.3597L12.9314 6.75423C12.5811 6.40435 12.0132 6.40435 11.6629 6.75423C11.3126 7.1041 11.3126 7.67135 11.6629 8.02123L14.3154 10.6705V18.1385C14.3154 18.6333 14.717 19.0344 15.2124 19.0344H15.6609C16.1563 19.0344 16.5579 18.6333 16.5579 18.1385V15.0029H17.0065V18.1385C17.0065 18.6333 17.4081 19.0344 17.9035 19.0344H18.352C18.8474 19.0344 19.249 18.6333 19.249 18.1385V10.6705L21.9015 8.0212C22.2518 7.67132 22.2518 7.1041 21.9015 6.75423Z" fill="#222123"/>
</g>
<defs>
<clipPath id="clip0">
<rect width="10.7641" height="14.3344" fill="white" transform="translate(11.3999 4.70001)"/>
</clipPath>
</defs>
</svg>
