<svg width="24" height="25" viewBox="0 0 24 25" fill="none" xmlns="http://www.w3.org/2000/svg">
<path d="M8.55835 9.30123V12.8988H12.7173C12.7175 11.8983 12.3571 10.9312 11.702 10.175C11.047 9.4187 10.1413 8.92393 9.151 8.78135C8.83908 8.73457 8.55835 8.98411 8.55835 9.30123ZM11.844 15.9608C12.4103 15.2344 12.7177 14.3397 12.7173 13.4186H5.14798L4.79446 12.6752C4.75268 12.5865 4.68648 12.5115 4.60362 12.459C4.52076 12.4065 4.42466 12.3787 4.32658 12.3789H3.35961C3.07368 12.3789 2.83974 12.6128 2.83974 12.8988C2.83974 13.1847 3.07368 13.4186 3.35961 13.4186H3.99386C3.99386 13.4186 4.97642 15.5345 5.09599 15.7165C4.73875 15.9085 4.4558 16.2143 4.29195 16.5853C4.1281 16.9563 4.09272 17.3714 4.19141 17.7648C4.34737 18.4198 4.88804 18.9449 5.54308 19.0905C6.63482 19.3296 7.61218 18.5914 7.75254 17.5776H8.83388C8.86933 17.8256 8.95562 18.0635 9.08734 18.2766C9.21906 18.4896 9.39337 18.6732 9.59935 18.8157C9.80532 18.9582 10.0385 19.0566 10.2843 19.1048C10.5301 19.153 10.7832 19.1499 11.0277 19.0956C11.3548 19.0238 11.6555 18.8629 11.8968 18.6308C12.1381 18.3986 12.3105 18.1043 12.395 17.7804C12.577 17.0577 12.3222 16.3871 11.844 15.9608ZM5.95898 18.0975C5.52748 18.0975 5.17917 17.7492 5.17917 17.3177C5.17917 16.8862 5.52748 16.5379 5.95898 16.5379C6.39048 16.5379 6.73879 16.8862 6.73879 17.3177C6.73879 17.7492 6.39048 18.0975 5.95898 18.0975ZM10.6378 18.0975C10.2063 18.0975 9.85803 17.7492 9.85803 17.3177C9.85803 16.8862 10.2063 16.5379 10.6378 16.5379C11.0693 16.5379 11.4177 16.8862 11.4177 17.3177C11.4177 17.7492 11.0693 18.0975 10.6378 18.0975Z" fill="#FDFAF9"/>
<g clip-path="url(#clip0)">
<path d="M14.764 6.71579C14.764 5.60249 15.6676 4.70001 16.7823 4.70001C17.897 4.70001 18.8006 5.60249 18.8006 6.71579C18.8006 7.82906 17.897 8.73156 16.7823 8.73156C15.6676 8.73156 14.764 7.82906 14.764 6.71579ZM21.9016 6.75423C21.5513 6.40435 20.9834 6.40435 20.6331 6.75423L18.2048 9.17951H15.3598L12.9315 6.75423C12.5812 6.40435 12.0133 6.40435 11.663 6.75423C11.3127 7.1041 11.3127 7.67135 11.663 8.02123L14.3155 10.6705V18.1385C14.3155 18.6333 14.7171 19.0344 15.2125 19.0344H15.661C16.1564 19.0344 16.558 18.6333 16.558 18.1385V15.0029H17.0066V18.1385C17.0066 18.6333 17.4082 19.0344 17.9036 19.0344H18.3521C18.8475 19.0344 19.2491 18.6333 19.2491 18.1385V10.6705L21.9016 8.0212C22.2519 7.67132 22.2519 7.1041 21.9016 6.75423Z" fill="#FDFAF9"/>
</g>
<defs>
<clipPath id="clip0">
<rect width="10.7641" height="14.3344" fill="white" transform="translate(11.4 4.70001)"/>
</clipPath>
</defs>
</svg>
