<svg width="25" height="25" viewBox="0 0 25 25" fill="none" xmlns="http://www.w3.org/2000/svg">
<g clip-path="url(#clip0)">
<path d="M9.011 7.63697C8.78205 7.63574 8.55311 7.63697 8.31128 7.63697C8.30085 7.50991 8.29164 7.39698 8.28121 7.27115C8.46473 7.27115 8.62738 7.27176 8.79003 7.27115C9.14664 7.26931 9.41978 7.02625 9.41425 6.71568C9.40873 6.40879 9.1405 6.17493 8.7931 6.17432C8.56969 6.17371 8.34627 6.17432 8.11856 6.17432C8.08971 6.04665 8.06393 5.93494 8.03508 5.80851C8.26095 5.80851 8.47025 5.81219 8.67894 5.80789C8.98338 5.80175 9.2338 5.5544 9.23319 5.26653C9.23257 4.97744 8.98092 4.7307 8.67771 4.72641C8.48867 4.72395 8.29962 4.72579 8.11058 4.72579C7.80246 4.72579 7.80246 4.72579 7.72696 4.42381C7.66681 4.18259 7.45199 4.00398 7.21077 3.99355C6.97324 3.98373 6.75227 4.13717 6.67494 4.37164C6.65284 4.43915 6.63443 4.51035 6.63136 4.58094C6.62645 4.70124 6.57059 4.73316 6.45643 4.72886C6.23179 4.72027 6.00714 4.72579 5.7825 4.72641C5.45044 4.72763 5.20309 4.95842 5.20063 5.26653C5.19879 5.57036 5.45167 5.80728 5.78127 5.80912C5.96909 5.81035 6.15752 5.80912 6.36375 5.80912C6.34902 5.89628 6.32754 5.96502 6.32815 6.03376C6.32999 6.16327 6.26063 6.18107 6.15261 6.17677C5.97891 6.17002 5.80521 6.17493 5.63151 6.17493C5.28226 6.17555 5.01956 6.40817 5.0165 6.71997C5.01343 7.02748 5.28226 7.27115 5.6266 7.27176C5.80337 7.27238 5.97952 7.27176 6.16181 7.27176C6.14954 7.40618 6.13972 7.51605 6.12867 7.63758C5.86843 7.63758 5.61923 7.63512 5.37003 7.63819C5.12207 7.64188 4.89681 7.83338 4.84893 8.07521C4.78449 8.40051 5.03552 8.71231 5.37494 8.71968C5.63396 8.7252 5.89298 8.72091 6.15813 8.72091C6.16734 8.85164 6.17532 8.96151 6.18452 9.08733C5.98566 9.08733 5.79232 9.08549 5.59898 9.08795C5.27551 9.09163 5.01772 9.3353 5.0165 9.63606C5.01527 9.93497 5.27613 10.1817 5.59836 10.1842C5.82301 10.186 6.04826 10.1878 6.27291 10.1829C6.35332 10.1811 6.39628 10.205 6.40917 10.2861C6.42206 10.3695 6.44109 10.4518 6.46073 10.55C6.30421 10.55 6.16734 10.5481 6.02985 10.5506C5.88745 10.553 5.73953 10.5389 5.60327 10.5702C5.35101 10.6273 5.17424 10.9023 5.2037 11.1509C5.23623 11.4222 5.46885 11.6302 5.74812 11.6327C6.05318 11.6351 6.35884 11.6333 6.67248 11.6333C6.67248 12.6178 6.67248 13.5759 6.67248 14.5433C6.38585 14.5433 6.11026 14.542 5.83467 14.5433C5.46149 14.5451 5.22211 14.782 5.2215 15.1576C5.22027 16.6596 5.21904 18.1615 5.22211 19.6628C5.22273 19.9808 5.30559 20.2815 5.48972 20.543C5.74015 20.8984 6.05809 21.1261 6.52517 21.1083C7.03032 21.0893 7.53669 21.1009 8.04245 21.1058C8.22904 21.1077 8.39108 21.0512 8.54575 20.953C8.98338 20.6756 9.19574 20.2613 9.21477 19.7616C9.23994 19.1037 9.22827 18.4445 9.2295 17.7853C9.23134 16.9217 9.2295 16.0587 9.23012 15.1951C9.23012 14.9281 9.13866 14.7102 8.8821 14.6016C8.78267 14.5592 8.66482 14.5482 8.55434 14.5445C8.29594 14.5365 8.03754 14.542 7.77729 14.542C7.77729 13.5624 7.77729 12.6055 7.77729 11.6523C7.79693 11.6437 7.80553 11.6364 7.81473 11.6364C8.05963 11.6345 8.30515 11.6351 8.55005 11.6315C8.64641 11.6296 8.74646 11.6333 8.8373 11.6069C9.0871 11.5351 9.25958 11.2724 9.22827 11.0349C9.19268 10.763 8.96189 10.5555 8.68201 10.5506C8.45368 10.5463 8.22535 10.55 7.9823 10.55C8.00255 10.461 8.02833 10.3929 8.03201 10.3235C8.03876 10.1995 8.10505 10.1774 8.21369 10.1817C8.40765 10.1891 8.6016 10.1842 8.79617 10.1836C9.14296 10.1823 9.4118 9.94418 9.41364 9.6379C9.41548 9.33223 9.14541 9.08856 8.80108 9.08672C8.62309 9.08611 8.4457 9.08672 8.26034 9.08672C8.27261 8.95537 8.28244 8.84182 8.29348 8.72091C8.54207 8.72091 8.77653 8.72213 9.011 8.72029C9.33753 8.71784 9.59348 8.47969 9.59716 8.17771C9.60146 7.88064 9.33876 7.63881 9.011 7.63697Z" fill="#FDFAF9"/>
<path d="M20.1327 15.5815C20.1327 15.5305 20.1303 15.4796 20.1247 15.4287C20.0891 15.1291 19.8755 14.9278 19.5754 14.9106C19.522 14.9076 19.4686 14.91 19.4078 14.91C19.4078 14.8247 19.4078 14.7639 19.4078 14.7032C19.4078 12.8029 19.4072 10.9026 19.4091 9.00173C19.4091 8.81514 19.3857 8.61873 19.2255 8.52237C19.0334 8.40636 19.0365 8.25292 19.042 8.07431C19.0488 7.86501 19.0408 7.65571 19.0439 7.44579C19.0512 6.94126 18.977 6.44901 18.8198 5.97026C18.6222 5.3663 18.3656 4.78873 17.9593 4.29217C17.6635 3.93066 17.2381 3.88462 16.8797 4.18047C16.7084 4.32164 16.5451 4.48429 16.4163 4.66413C15.9983 5.24661 15.8442 5.923 15.7994 6.6221C15.7644 7.16652 15.7773 7.71402 15.765 8.26028C15.7638 8.31 15.7509 8.38611 15.7184 8.40452C15.4557 8.55306 15.3968 8.78752 15.3974 9.06618C15.4011 10.9462 15.3992 12.8262 15.3992 14.7062C15.3992 14.767 15.3992 14.8271 15.3992 14.9039C15.3035 14.9082 15.2261 14.9039 15.1519 14.9168C14.845 14.9689 14.6737 15.2071 14.6737 15.5815C14.6731 17.1957 14.6731 18.81 14.6737 20.4242C14.6737 20.4801 14.678 20.5366 14.6848 20.5918C14.7216 20.8925 14.934 21.0994 15.2359 21.1006C16.6814 21.1049 18.1275 21.1061 19.5729 21.0957C19.6975 21.0951 19.8363 21.0227 19.9431 20.9472C20.1112 20.8281 20.1346 20.6348 20.1339 20.4384C20.1321 18.8198 20.1327 17.2006 20.1327 15.5815ZM17.3105 5.30246C17.9354 6.24646 18.0072 7.27946 17.9237 8.35174C17.5794 8.35174 17.2338 8.35174 16.8637 8.35174C16.8754 7.31997 16.7649 6.27469 17.3105 5.30246ZM18.2987 14.9033C17.7009 14.9033 17.1104 14.9033 16.5095 14.9033C16.5095 13.092 16.5095 11.2825 16.5095 9.46207C17.0994 9.46207 17.6935 9.46207 18.2987 9.46207C18.2987 11.2684 18.2987 13.0773 18.2987 14.9033Z" fill="#FDFAF9"/>
<path d="M13.3946 13.4621C13.1135 13.4572 12.833 13.4609 12.5519 13.4609C12.4776 13.4609 12.404 13.4609 12.3168 13.4609C12.3168 13.3854 12.3168 13.3344 12.3168 13.2841C12.3168 10.929 12.3162 8.57395 12.3187 6.21948C12.3187 6.12986 12.3377 6.03657 12.3678 5.95248C12.512 5.55536 12.6673 5.16193 12.8115 4.76481C12.9533 4.37322 12.6845 3.99574 12.2689 3.99513C11.9369 3.99451 11.6024 4.01906 11.2734 3.98837C10.9131 3.95523 10.5645 4.38549 10.7259 4.77095C10.891 5.16561 11.0303 5.57071 11.1752 5.97335C11.2053 6.05744 11.2237 6.15073 11.2243 6.23973C11.2267 8.58438 11.2261 10.929 11.2261 13.2737C11.2261 13.3289 11.2261 13.3848 11.2261 13.4615C10.9953 13.4615 10.7854 13.4762 10.578 13.4584C10.1845 13.4247 9.94578 13.7488 9.94762 14.0808C9.95683 15.9301 9.94823 17.7795 9.95683 19.6282C9.95805 19.8381 9.99979 20.0572 10.0704 20.2549C10.2692 20.8097 10.7118 21.1043 11.2949 21.1043C11.7749 21.1043 12.2554 21.0988 12.7354 21.1068C12.9613 21.1105 13.1528 21.0387 13.3332 20.9116C13.7469 20.6207 13.9421 20.2033 13.9452 19.719C13.9581 17.8187 13.9519 15.9185 13.9495 14.0182C13.9495 13.7046 13.7083 13.4683 13.3946 13.4621Z" fill="#FDFAF9"/>
</g>
<defs>
<clipPath id="clip0">
<rect width="15.2936" height="17.1227" fill="white" transform="translate(4.83968 3.98651)"/>
</clipPath>
</defs>
</svg>
