<svg width="25" height="25" viewBox="0 0 25 25" fill="none" xmlns="http://www.w3.org/2000/svg">
<g clip-path="url(#clip0)">
<path d="M9.01082 7.63697C8.78188 7.63574 8.55293 7.63697 8.3111 7.63697C8.30067 7.50991 8.29146 7.39698 8.28103 7.27115C8.46455 7.27115 8.6272 7.27176 8.78985 7.27115C9.14646 7.26931 9.4196 7.02625 9.41407 6.71568C9.40855 6.40879 9.14033 6.17493 8.79292 6.17432C8.56951 6.17371 8.34609 6.17432 8.11838 6.17432C8.08953 6.04665 8.06375 5.93494 8.0349 5.80851C8.26077 5.80851 8.47007 5.81219 8.67876 5.80789C8.9832 5.80175 9.23362 5.5544 9.23301 5.26653C9.23239 4.97744 8.98074 4.7307 8.67753 4.72641C8.48849 4.72395 8.29944 4.72579 8.1104 4.72579C7.80228 4.72579 7.80228 4.72579 7.72678 4.42381C7.66663 4.18259 7.45181 4.00398 7.21059 3.99355C6.97306 3.98373 6.75209 4.13717 6.67476 4.37164C6.65266 4.43915 6.63425 4.51035 6.63118 4.58094C6.62627 4.70124 6.57042 4.73316 6.45625 4.72886C6.23161 4.72027 6.00696 4.72579 5.78232 4.72641C5.45026 4.72763 5.20291 4.95842 5.20045 5.26653C5.19861 5.57036 5.45149 5.80728 5.78109 5.80912C5.96891 5.81035 6.15734 5.80912 6.36357 5.80912C6.34884 5.89628 6.32736 5.96502 6.32797 6.03376C6.32981 6.16327 6.26045 6.18107 6.15243 6.17677C5.97873 6.17002 5.80503 6.17493 5.63133 6.17493C5.28208 6.17555 5.01939 6.40817 5.01632 6.71997C5.01325 7.02748 5.28208 7.27115 5.62642 7.27176C5.80319 7.27238 5.97934 7.27176 6.16164 7.27176C6.14936 7.40618 6.13954 7.51605 6.12849 7.63758C5.86825 7.63758 5.61905 7.63512 5.36986 7.63819C5.12189 7.64188 4.89663 7.83338 4.84875 8.07521C4.78431 8.40051 5.03534 8.71231 5.37477 8.71968C5.63378 8.7252 5.8928 8.72091 6.15795 8.72091C6.16716 8.85164 6.17514 8.96151 6.18435 9.08733C5.98548 9.08733 5.79214 9.08549 5.5988 9.08795C5.27533 9.09163 5.01754 9.3353 5.01632 9.63606C5.01509 9.93497 5.27595 10.1817 5.59818 10.1842C5.82283 10.186 6.04809 10.1878 6.27273 10.1829C6.35314 10.1811 6.3961 10.205 6.40899 10.2861C6.42188 10.3695 6.44091 10.4518 6.46055 10.55C6.30403 10.55 6.16716 10.5481 6.02967 10.5506C5.88727 10.553 5.73935 10.5389 5.60309 10.5702C5.35083 10.6273 5.17406 10.9023 5.20352 11.1509C5.23605 11.4222 5.46867 11.6302 5.74795 11.6327C6.053 11.6351 6.35866 11.6333 6.6723 11.6333C6.6723 12.6178 6.6723 13.5759 6.6723 14.5433C6.38567 14.5433 6.11008 14.542 5.83449 14.5433C5.46131 14.5451 5.22193 14.782 5.22132 15.1576C5.22009 16.6596 5.21886 18.1615 5.22193 19.6628C5.22255 19.9808 5.30541 20.2815 5.48954 20.543C5.73997 20.8984 6.05791 21.1261 6.525 21.1083C7.03014 21.0893 7.53651 21.1009 8.04227 21.1058C8.22886 21.1077 8.3909 21.0512 8.54557 20.953C8.9832 20.6756 9.19557 20.2613 9.21459 19.7616C9.23976 19.1037 9.2281 18.4445 9.22932 17.7853C9.23116 16.9217 9.22932 16.0587 9.22994 15.1951C9.22994 14.9281 9.13848 14.7102 8.88192 14.6016C8.78249 14.5592 8.66464 14.5482 8.55416 14.5445C8.29576 14.5365 8.03736 14.542 7.77711 14.542C7.77711 13.5624 7.77711 12.6055 7.77711 11.6523C7.79675 11.6437 7.80535 11.6364 7.81455 11.6364C8.05945 11.6345 8.30497 11.6351 8.54987 11.6315C8.64623 11.6296 8.74628 11.6333 8.83712 11.6069C9.08693 11.5351 9.2594 11.2724 9.2281 11.0349C9.1925 10.763 8.96171 10.5555 8.68183 10.5506C8.4535 10.5463 8.22517 10.55 7.98212 10.55C8.00237 10.461 8.02815 10.3929 8.03183 10.3235C8.03858 10.1995 8.10487 10.1774 8.21351 10.1817C8.40747 10.1891 8.60142 10.1842 8.79599 10.1836C9.14278 10.1823 9.41162 9.94418 9.41346 9.6379C9.4153 9.33223 9.14524 9.08856 8.8009 9.08672C8.62291 9.08611 8.44552 9.08672 8.26016 9.08672C8.27244 8.95537 8.28226 8.84182 8.2933 8.72091C8.54189 8.72091 8.77635 8.72213 9.01082 8.72029C9.33735 8.71784 9.5933 8.47969 9.59698 8.17771C9.60128 7.88064 9.33858 7.63881 9.01082 7.63697Z" fill="#222123"/>
<path d="M20.1325 15.5815C20.1325 15.5305 20.1301 15.4796 20.1246 15.4287C20.089 15.1291 19.8754 14.9278 19.5752 14.9106C19.5218 14.9076 19.4684 14.91 19.4077 14.91C19.4077 14.8247 19.4077 14.7639 19.4077 14.7032C19.4077 12.8029 19.4071 10.9026 19.4089 9.00173C19.4089 8.81514 19.3856 8.61873 19.2254 8.52237C19.0333 8.40636 19.0363 8.25292 19.0419 8.07431C19.0486 7.86501 19.0406 7.65571 19.0437 7.44579C19.0511 6.94126 18.9768 6.44901 18.8197 5.97026C18.622 5.3663 18.3655 4.78873 17.9591 4.29217C17.6633 3.93066 17.2379 3.88462 16.8795 4.18047C16.7082 4.32164 16.545 4.48429 16.4161 4.66413C15.9981 5.24661 15.844 5.923 15.7992 6.6221C15.7642 7.16652 15.7771 7.71402 15.7649 8.26028C15.7636 8.31 15.7507 8.38611 15.7182 8.40452C15.4555 8.55306 15.3966 8.78752 15.3972 9.06618C15.4009 10.9462 15.399 12.8262 15.399 14.7062C15.399 14.767 15.399 14.8271 15.399 14.9039C15.3033 14.9082 15.226 14.9039 15.1517 14.9168C14.8448 14.9689 14.6736 15.2071 14.6736 15.5815C14.6729 17.1957 14.6729 18.81 14.6736 20.4242C14.6736 20.4801 14.6779 20.5366 14.6846 20.5918C14.7214 20.8925 14.9338 21.0994 15.2358 21.1006C16.6812 21.1049 18.1273 21.1061 19.5728 21.0957C19.6974 21.0951 19.8361 21.0227 19.9429 20.9472C20.1111 20.8281 20.1344 20.6348 20.1338 20.4384C20.1319 18.8198 20.1325 17.2006 20.1325 15.5815ZM17.3104 5.30246C17.9352 6.24646 18.007 7.27946 17.9235 8.35174C17.5792 8.35174 17.2336 8.35174 16.8635 8.35174C16.8752 7.31997 16.7647 6.27469 17.3104 5.30246ZM18.2986 14.9033C17.7007 14.9033 17.1103 14.9033 16.5094 14.9033C16.5094 13.092 16.5094 11.2825 16.5094 9.46207C17.0992 9.46207 17.6934 9.46207 18.2986 9.46207C18.2986 11.2684 18.2986 13.0773 18.2986 14.9033Z" fill="#222123"/>
<path d="M13.3945 13.4621C13.1134 13.4572 12.8329 13.4609 12.5518 13.4609C12.4775 13.4609 12.4039 13.4609 12.3167 13.4609C12.3167 13.3854 12.3167 13.3344 12.3167 13.2841C12.3167 10.929 12.3161 8.57392 12.3186 6.21944C12.3186 6.12983 12.3376 6.03654 12.3677 5.95245C12.5119 5.55533 12.6672 5.1619 12.8114 4.76478C12.9532 4.37319 12.6844 3.99571 12.2688 3.9951C11.9368 3.99448 11.6023 4.01903 11.2733 3.98834C10.913 3.9552 10.5644 4.38546 10.7258 4.77092C10.8909 5.16558 11.0302 5.57068 11.1751 5.97332C11.2052 6.05741 11.2236 6.1507 11.2242 6.2397C11.2266 8.58435 11.226 10.929 11.226 13.2737C11.226 13.3289 11.226 13.3847 11.226 13.4615C10.9952 13.4615 10.7853 13.4762 10.5779 13.4584C10.1844 13.4246 9.94568 13.7487 9.94752 14.0808C9.95673 15.9301 9.94813 17.7794 9.95673 19.6281C9.95795 19.8381 9.99969 20.0572 10.0703 20.2548C10.2691 20.8097 10.7117 21.1043 11.2948 21.1043C11.7748 21.1043 12.2553 21.0988 12.7353 21.1068C12.9612 21.1104 13.1527 21.0386 13.3331 20.9116C13.7468 20.6206 13.942 20.2033 13.9451 19.719C13.958 17.8187 13.9518 15.9184 13.9494 14.0182C13.9494 13.7045 13.7082 13.4682 13.3945 13.4621Z" fill="#222123"/>
</g>
<defs>
<clipPath id="clip0">
<rect width="15.2936" height="17.1227" fill="white" transform="translate(4.8396 3.98651)"/>
</clipPath>
</defs>
</svg>
