<svg width="24" height="24" viewBox="0 0 24 24" fill="none" xmlns="http://www.w3.org/2000/svg">
<path d="M17.7091 20.5455H12.9091V3.5C12.9091 2.67157 12.2375 2 11.4091 2H5.68182C4.85339 2 4.18182 2.67157 4.18182 3.5V20.5455H2.5C2.22386 20.5455 2 20.7693 2 21.0455V21.1364C2 21.4125 2.22386 21.6364 2.5 21.6364H21.5C21.7761 21.6364 22 21.4125 22 21.1364V21.0455C22 20.7693 21.7761 20.5455 21.5 20.5455H19.0182H17.7091Z" fill="#222123"/>
<path d="M10.5 4H6.5C6.22386 4 6 4.22386 6 4.5V5.5C6 5.77614 6.22386 6 6.5 6H10.5C10.7761 6 11 5.77614 11 5.5V4.5C11 4.22386 10.7761 4 10.5 4Z" fill="#FDFAF9"/>
<path d="M10.5 9H6.5C6.22386 9 6 9.22386 6 9.5V10.5C6 10.7761 6.22386 11 6.5 11H10.5C10.7761 11 11 10.7761 11 10.5V9.5C11 9.22386 10.7761 9 10.5 9Z" fill="#FDFAF9"/>
<path d="M10.5 14H6.5C6.22386 14 6 14.2239 6 14.5V15.5C6 15.7761 6.22386 16 6.5 16H10.5C10.7761 16 11 15.7761 11 15.5V14.5C11 14.2239 10.7761 14 10.5 14Z" fill="#FDFAF9"/>
<path d="M21 14.0677C21 13.4311 20.6983 12.4091 20.2683 11.5837C20.1067 11.2748 19.9317 11.0017 19.75 10.7755C19.6583 10.6616 19.5667 10.557 19.4733 10.4681C19.1517 10.1576 18.8233 10 18.5 10C18.1767 10 17.8483 10.1576 17.5267 10.4665C17.2483 10.7333 16.9733 11.1203 16.7317 11.5837C16.3017 12.4091 16 13.4311 16 14.0677C16 15.0865 16.8117 15.9431 17.9033 16.1756V16.6562V17.1289V20.5319C17.9033 20.7909 18.1267 21 18.4033 21C18.68 21 18.9033 20.7909 18.9033 20.5319V17.1555V16.6827V16.2099C19.2083 16.1662 19.4933 16.0757 19.75 15.9462C20.4967 15.5702 21 14.8696 21 14.0677Z" fill="#222123"/>
</svg>
