<svg width="21" height="21" viewBox="0 0 21 21" fill="none" xmlns="http://www.w3.org/2000/svg">
<path fill-rule="evenodd" clip-rule="evenodd" d="M16.0424 19.0455H11.2424V2C11.2424 1.17157 10.5708 0.5 9.74242 0.5H4.01515C3.18672 0.5 2.51515 1.17157 2.51515 2V19.0455H0.833328C0.557186 19.0455 0.333328 19.2693 0.333328 19.5455V19.6364C0.333328 19.9125 0.557186 20.1364 0.833328 20.1364H19.8333C20.1095 20.1364 20.3333 19.9125 20.3333 19.6364V19.5455C20.3333 19.2693 20.1095 19.0455 19.8333 19.0455H17.3515H17.2365C17.2366 19.041 17.2367 19.0364 17.2367 19.0319V15.6555V15.1827V14.7099C17.5417 14.6662 17.8267 14.5757 18.0833 14.4462C18.83 14.0702 19.3333 13.3696 19.3333 12.5677C19.3333 11.9311 19.0317 10.9091 18.6017 10.0837C18.44 9.77475 18.265 9.5017 18.0833 9.27546C17.9917 9.16156 17.9 9.05702 17.8067 8.96809C17.485 8.65759 17.1567 8.5 16.8333 8.5C16.51 8.5 16.1817 8.65759 15.86 8.96653C15.5817 9.23333 15.3067 9.62028 15.065 10.0837C14.635 10.9091 14.3333 11.9311 14.3333 12.5677C14.3333 13.5865 15.145 14.4431 16.2367 14.6756V15.1562V15.6289V19.0319C16.2367 19.0364 16.2367 19.041 16.2369 19.0455H16.0424ZM8.83333 2.5H4.83333C4.55719 2.5 4.33333 2.72386 4.33333 3V4C4.33333 4.27614 4.55719 4.5 4.83333 4.5H8.83333C9.10947 4.5 9.33333 4.27614 9.33333 4V3C9.33333 2.72386 9.10947 2.5 8.83333 2.5ZM4.83333 7.5H8.83333C9.10947 7.5 9.33333 7.72386 9.33333 8V9C9.33333 9.27614 9.10947 9.5 8.83333 9.5H4.83333C4.55719 9.5 4.33333 9.27614 4.33333 9V8C4.33333 7.72386 4.55719 7.5 4.83333 7.5ZM8.83333 12.5H4.83333C4.55719 12.5 4.33333 12.7239 4.33333 13V14C4.33333 14.2761 4.55719 14.5 4.83333 14.5H8.83333C9.10947 14.5 9.33333 14.2761 9.33333 14V13C9.33333 12.7239 9.10947 12.5 8.83333 12.5Z" fill="#FDFAF9"/>
</svg>
