<svg width="40" height="40" viewBox="0 0 40 40" fill="none" xmlns="http://www.w3.org/2000/svg">
<path d="M10.4778 4.99998C7.44335 4.99998 5 7.44332 5 10.4778V29.5221C5 32.5566 7.44335 34.9999 10.4778 34.9999H20.7997V23.2718H17.6984V19.0493H20.7997V15.4418C20.7997 12.6076 22.632 10.0053 26.8531 10.0053C28.5621 10.0053 29.8259 10.1694 29.8259 10.1694L29.7265 14.1125C29.7265 14.1125 28.4376 14.1003 27.0312 14.1003C25.509 14.1003 25.265 14.8016 25.265 15.9659V19.0493H29.8475L29.6478 23.2718H25.265V34.9999H29.5221C32.5566 34.9999 34.9999 32.5566 34.9999 29.5221V10.4778C34.9999 7.44335 32.5566 5.00001 29.5221 5.00001H10.4778L10.4778 4.99998Z" fill="#395185"/>
</svg>
