<svg width="36" height="36" viewBox="0 0 36 36" fill="none" xmlns="http://www.w3.org/2000/svg">
<path d="M26.3514 24.3058H12.75L9.95666 26.6904L7.16334 24.3058H1.27966V25.9409C1.27966 28.025 2.71924 29.7228 4.49947 29.7562C4.66503 30.7863 5.06563 31.717 5.66858 32.4453C6.5604 33.5224 7.8569 34.1165 9.31897 34.1165H18.3121C19.7741 34.1165 21.0707 33.5224 21.9625 32.4439C22.5654 31.7156 22.966 30.7849 23.1316 29.7548C24.0772 29.7378 24.9268 29.2507 25.5161 28.4856C26.0665 27.7521 26.3601 26.8579 26.3514 25.9409V24.3058Z" fill="#FDFAF9"/>
<path d="M7.34321 22.1257L9.95462 24.0462L12.5892 22.1257H26.3514V21.5806C26.3506 20.9526 26.1334 20.3441 25.7362 19.8576C25.3391 19.3711 24.7864 19.0364 24.1712 18.9099C24.1154 16.8872 23.2856 15.1941 21.752 14.0046C20.3335 12.8982 18.4381 12.315 16.2682 12.315H11.3629C6.71505 12.315 3.56678 14.9564 3.45981 18.9099C2.84468 19.0364 2.29196 19.3711 1.89483 19.8576C1.49769 20.3441 1.28043 20.9526 1.27966 21.5806V22.1257H7.34321Z" fill="#FDFAF9"/>
<path d="M31.739 6.86462H26.6572L27.2649 4.43512L30.3028 3.39001L29.6215 1.41425L25.3975 2.77684L24.4103 6.86462H14.3605V9.04477H15.6379L15.7646 10.1348H16.2681C18.9252 10.1348 21.2865 10.8775 23.0892 12.2823C24.0919 13.0549 24.9048 14.0464 25.4656 15.1812C25.8112 15.8852 26.0573 16.6339 26.1966 17.4056C27.2119 18.0307 27.9647 19.0041 28.3144 20.1439C28.6641 21.2836 28.5867 22.5117 28.0968 23.5986C28.3838 24.3462 28.5312 25.1401 28.5314 25.9409C28.5314 27.4629 28.0137 28.9134 27.0735 30.0253C26.4916 30.7184 25.7464 31.2558 24.9049 31.5889C24.6181 32.4061 24.1909 33.1669 23.6425 33.8372C23.5621 33.9339 23.4796 34.0286 23.3952 34.1199H28.5314C29.6215 34.1199 30.0984 33.5749 30.2347 32.5529L32.7146 9.04818H33.9818V6.86462H31.739Z" fill="#FDFAF9"/>
</svg>
