<svg width="24" height="25" viewBox="0 0 24 25" fill="none" xmlns="http://www.w3.org/2000/svg">
<g clip-path="url(#clip0)">
<path d="M15.8592 15.8876H9.17379L7.80081 17.0596L6.42782 15.8876H3.53584V16.6913C3.53584 17.7157 4.24343 18.5502 5.11846 18.5666C5.19984 19.0729 5.39674 19.5303 5.69311 19.8883C6.13146 20.4178 6.76872 20.7098 7.48736 20.7098H11.9077C12.6264 20.7098 13.2636 20.4178 13.702 19.8877C13.9983 19.5297 14.1952 19.0722 14.2766 18.5659C14.7414 18.5575 15.159 18.3181 15.4487 17.942C15.7192 17.5815 15.8635 17.142 15.8592 16.6913V15.8876Z" fill="#FDFAF9"/>
<path d="M6.51623 14.816L7.7998 15.76L9.09476 14.816H15.8592V14.5481C15.8589 14.2394 15.7521 13.9403 15.5569 13.7012C15.3617 13.462 15.09 13.2975 14.7876 13.2354C14.7602 12.2411 14.3523 11.409 13.5985 10.8243C12.9013 10.2804 11.9697 9.99377 10.9031 9.99377H8.49199C6.20747 9.99377 4.66002 11.2921 4.60744 13.2354C4.30509 13.2975 4.03341 13.462 3.83821 13.7012C3.64301 13.9403 3.53622 14.2394 3.53584 14.5481V14.816H6.51623Z" fill="#FDFAF9"/>
<path d="M18.5074 7.3148H16.0095L16.3082 6.12064L17.8014 5.60694L17.4666 4.6358L15.3903 5.30555L14.9051 7.3148H9.96538V8.3864H10.5933L10.6556 8.9222H10.903C12.209 8.9222 13.3697 9.28721 14.2558 9.97772C14.7486 10.3575 15.1482 10.8448 15.4238 11.4026C15.5937 11.7487 15.7146 12.1166 15.7832 12.496C16.2822 12.8032 16.6522 13.2817 16.8241 13.8419C16.996 14.4021 16.9579 15.0058 16.7171 15.54C16.8582 15.9074 16.9306 16.2977 16.9308 16.6913C16.9308 17.4394 16.6763 18.1524 16.2141 18.6989C15.9282 19.0396 15.5618 19.3037 15.1482 19.4674C15.0073 19.8691 14.7973 20.243 14.5277 20.5725C14.4882 20.62 14.4477 20.6666 14.4062 20.7115H16.9308C17.4666 20.7115 17.701 20.4436 17.768 19.9413L18.9869 8.38807H19.6098V7.3148H18.5074Z" fill="#FDFAF9"/>
</g>
<defs>
<clipPath id="clip0">
<rect width="17.1456" height="17.1456" fill="white" transform="translate(3.00002 4.09998)"/>
</clipPath>
</defs>
</svg>
