<svg width="24" height="25" viewBox="0 0 24 25" fill="none" xmlns="http://www.w3.org/2000/svg">
<g clip-path="url(#clip0)">
<path d="M15.8593 15.8876H9.17384L7.80085 17.0597L6.42787 15.8876H3.53589V16.6913C3.53589 17.7157 4.24348 18.5502 5.11851 18.5666C5.19988 19.0729 5.39679 19.5304 5.69315 19.8884C6.1315 20.4178 6.76877 20.7098 7.48741 20.7098H11.9078C12.6264 20.7098 13.2637 20.4178 13.702 19.8877C13.9984 19.5297 14.1953 19.0723 14.2767 18.5659C14.7415 18.5576 15.1591 18.3181 15.4487 17.9421C15.7193 17.5816 15.8635 17.142 15.8593 16.6913V15.8876Z" fill="#222123"/>
<path d="M6.51627 14.816L7.79985 15.76L9.09481 14.816H15.8593V14.5481C15.8589 14.2394 15.7521 13.9403 15.5569 13.7012C15.3617 13.4621 15.09 13.2976 14.7877 13.2354C14.7602 12.2411 14.3523 11.409 13.5985 10.8243C12.9013 10.2805 11.9697 9.9938 10.9031 9.9938H8.49204C6.20752 9.9938 4.66006 11.2921 4.60749 13.2354C4.30513 13.2976 4.03346 13.4621 3.83826 13.7012C3.64306 13.9403 3.53627 14.2394 3.53589 14.5481V14.816H6.51627Z" fill="#222123"/>
<path d="M18.5073 7.3148H16.0095L16.3082 6.12064L17.8014 5.60694L17.4665 4.6358L15.3903 5.30555L14.9051 7.3148H9.96533V8.3864H10.5932L10.6555 8.9222H10.903C12.209 8.9222 13.3697 9.28721 14.2557 9.97772C14.7486 10.3575 15.1481 10.8448 15.4238 11.4026C15.5937 11.7487 15.7146 12.1166 15.7831 12.496C16.2821 12.8032 16.6521 13.2817 16.824 13.8419C16.9959 14.4021 16.9579 15.0058 16.7171 15.54C16.8582 15.9074 16.9306 16.2977 16.9307 16.6913C16.9307 17.4394 16.6762 18.1524 16.2141 18.6989C15.9281 19.0396 15.5618 19.3037 15.1482 19.4674C15.0072 19.8691 14.7972 20.243 14.5277 20.5725C14.4881 20.62 14.4476 20.6666 14.4061 20.7115H16.9307C17.4665 20.7115 17.7009 20.4436 17.7679 19.9413L18.9869 8.38807H19.6097V7.3148H18.5073Z" fill="#222123"/>
</g>
<defs>
<clipPath id="clip0">
<rect width="17.1456" height="17.1456" fill="white" transform="translate(3 4.10001)"/>
</clipPath>
</defs>
</svg>
