<svg width="40" height="40" viewBox="0 0 40 40" fill="none" xmlns="http://www.w3.org/2000/svg">
<g clip-path="url(#clip0)">
<path d="M11.0213 17.02C11.6452 15.1326 12.8491 13.4904 14.4615 12.3277C16.0738 11.165 18.0122 10.5412 20 10.5453C22.2533 10.5453 24.2907 11.3453 25.8907 12.6547L30.5467 8C27.7093 5.52667 24.0733 4 20 4C13.6933 4 8.26399 7.59733 5.65332 12.8667L11.0213 17.02Z" fill="#EA4335"/>
<path d="M25.3867 28.0173C23.9334 28.9547 22.0881 29.4547 20.0001 29.4547C18.0202 29.4587 16.0892 28.8399 14.4804 27.6858C12.8716 26.5317 11.6667 24.9008 11.0361 23.024L5.64941 27.1133C6.97107 29.7884 9.01644 32.0392 11.5532 33.6101C14.0899 35.1809 17.0164 36.0089 20.0001 36C23.9107 36 27.6467 34.6093 30.4454 32L25.3881 28.0173H25.3867Z" fill="#34A853"/>
<path d="M30.4453 32C33.372 29.2693 35.272 25.2053 35.272 20C35.272 19.0533 35.1267 18.036 34.9093 17.0907H20V23.2733H28.5813C28.1587 25.352 27.0213 26.9613 25.388 28.0173L30.4453 32Z" fill="#4A90E2"/>
<path d="M11.0362 23.024C10.71 22.0492 10.5442 21.0279 10.5455 20C10.5455 18.9573 10.7122 17.956 11.0215 17.02L5.65349 12.8667C4.55533 15.0836 3.98923 17.526 4.00016 20C4.00016 22.56 4.59349 24.9733 5.64949 27.1133L11.0362 23.024Z" fill="#FBBC05"/>
</g>
<defs>
<clipPath id="clip0">
<rect width="32" height="32" fill="white" transform="translate(4 4)"/>
</clipPath>
</defs>
</svg>
