<svg width="375" height="168" viewBox="0 0 375 168" fill="none" xmlns="http://www.w3.org/2000/svg">
<path d="M0 0H375V130.5C375 130.5 292.383 168 187.5 168C82.6172 168 0 130.5 0 130.5V0Z" fill="#8C5ED4"/>
<path d="M167.851 42.9787C167.851 40.8636 169.566 39.1489 171.681 39.1489L181.574 39.1489L191.468 39.1489C193.583 39.1489 195.298 40.8636 195.298 42.9787V104.255C195.298 106.37 193.583 108.085 191.468 108.085H171.681C169.566 108.085 167.851 106.37 167.851 104.255V42.9787Z" fill="#8C5ED4"/>
<path d="M164.66 48.0851C164.66 44.9124 167.232 42.3405 170.404 42.3405H192.745C195.917 42.3405 198.489 44.9124 198.489 48.0851V106.809C198.489 109.981 195.917 112.553 192.745 112.553H170.404C167.232 112.553 164.66 109.981 164.66 106.809V48.0851Z" fill="#6529C6"/>
<path d="M183.17 94.5168C183.17 91.8338 184.699 89.3853 187.11 88.2078L200.833 81.505C202.778 80.5553 205.052 80.5553 206.996 81.5051L212.45 84.1689C213.298 84.5831 214.287 83.9657 214.287 83.0218V81.629C214.287 80.8003 215.064 80.1913 215.869 80.3894L218.502 81.0375C219.072 81.1779 219.473 81.6896 219.473 82.2771V86.8019C219.473 87.2897 219.751 87.7349 220.19 87.949L220.72 88.2078C223.131 89.3853 224.66 91.8338 224.66 94.5168V110C224.66 113.878 221.516 117.021 217.638 117.021H190.191C186.314 117.021 183.17 113.878 183.17 110V94.5168Z" fill="#6529C6"/>
<path fill-rule="evenodd" clip-rule="evenodd" d="M228.489 94.5168V110C228.489 115.993 223.631 120.851 217.638 120.851H190.192C184.199 120.851 179.34 115.993 179.34 110V94.5168C179.34 90.3703 181.703 86.5863 185.429 84.7666L199.153 78.0638C202.158 76.596 205.672 76.596 208.677 78.0638L211.055 79.2253C212.111 77.251 214.418 76.088 216.784 76.6705L219.417 77.3187C221.699 77.8804 223.303 79.927 223.303 82.277V85.2616C226.504 87.2196 228.489 90.7159 228.489 94.5168ZM187.11 88.2078C184.699 89.3853 183.17 91.8338 183.17 94.5168V110C183.17 113.878 186.314 117.021 190.192 117.021H217.638C221.516 117.021 224.66 113.878 224.66 110V94.5168C224.66 91.8338 223.131 89.3853 220.72 88.2078L220.19 87.949C219.751 87.7349 219.473 87.2897 219.473 86.8019V82.277C219.473 81.6895 219.072 81.1779 218.502 81.0374L215.869 80.3893C215.064 80.1913 214.287 80.8003 214.287 81.6289V83.0218C214.287 83.9656 213.298 84.5831 212.45 84.1689L206.996 81.505C205.052 80.5553 202.778 80.5553 200.833 81.505L187.11 88.2078Z" fill="#8C5ED4"/>
<path fill-rule="evenodd" clip-rule="evenodd" d="M196.921 101.324C196.363 100.434 195.191 100.158 194.294 100.71C193.394 101.264 193.113 102.443 193.667 103.344L195.298 102.34C193.667 103.344 193.668 103.345 193.668 103.346L193.669 103.347L193.671 103.351L193.677 103.36L193.691 103.382C193.701 103.399 193.715 103.419 193.731 103.444C193.763 103.492 193.806 103.556 193.861 103.632C193.969 103.784 194.123 103.988 194.325 104.226C194.726 104.7 195.323 105.319 196.129 105.936C197.754 107.179 200.228 108.404 203.596 108.404C206.949 108.404 209.554 107.19 211.299 105.995C212.172 105.398 212.841 104.8 213.298 104.343C213.527 104.114 213.704 103.918 213.83 103.774C213.892 103.702 213.942 103.642 213.979 103.597C213.997 103.575 214.012 103.556 214.024 103.541L214.039 103.521L214.045 103.514L214.049 103.509C214.049 103.509 214.05 103.508 212.532 102.34L214.05 103.508C214.694 102.67 214.538 101.467 213.699 100.823C212.864 100.18 211.667 100.334 211.021 101.164L211.011 101.177C210.998 101.193 210.973 101.222 210.938 101.263C210.866 101.346 210.749 101.475 210.589 101.635C210.268 101.956 209.78 102.394 209.137 102.835C207.851 103.714 205.987 104.574 203.596 104.574C201.219 104.574 199.543 103.726 198.456 102.894C197.906 102.473 197.505 102.055 197.248 101.752C197.121 101.601 197.03 101.481 196.977 101.406C196.95 101.368 196.933 101.343 196.925 101.331C196.923 101.328 196.922 101.326 196.921 101.324Z" fill="#FDFAF9"/>
<path fill-rule="evenodd" clip-rule="evenodd" d="M175.219 67.4944C174.661 66.6037 173.489 66.3281 172.592 66.8798C171.691 67.4341 171.411 68.6135 171.965 69.5142L173.596 68.5106C171.965 69.5142 171.965 69.515 171.966 69.5159L171.967 69.5176L171.969 69.5214L171.975 69.5301L171.989 69.5521C171.999 69.5688 172.013 69.5894 172.029 69.6137C172.061 69.6623 172.104 69.7258 172.158 69.8019C172.267 69.954 172.421 70.1578 172.623 70.3958C173.024 70.8704 173.621 71.4896 174.427 72.1062C176.052 73.3489 178.525 74.5745 181.894 74.5745C185.247 74.5745 187.851 73.36 189.597 72.1655C190.47 71.5684 191.139 70.9698 191.595 70.5129C191.824 70.2839 192.002 70.0886 192.127 69.9442C192.19 69.872 192.24 69.8123 192.277 69.7673C192.295 69.7448 192.31 69.7259 192.322 69.711L192.337 69.6916L192.343 69.6841L192.347 69.6795C192.347 69.6788 192.348 69.6782 190.83 68.5106L192.348 69.6782C192.992 68.8399 192.836 67.6376 191.997 66.9928C191.162 66.3502 189.965 66.5038 189.319 67.3346L189.308 67.3471C189.296 67.3629 189.271 67.3924 189.235 67.4336C189.164 67.5161 189.047 67.6449 188.887 67.8049C188.566 68.126 188.078 68.5645 187.435 69.0047C186.149 69.8846 184.285 70.7447 181.894 70.7447C179.517 70.7447 177.841 69.8957 176.754 69.064C176.203 68.6433 175.803 68.2253 175.546 67.922C175.418 67.771 175.328 67.6507 175.275 67.5759C175.248 67.5386 175.231 67.5129 175.223 67.5007C175.221 67.4978 175.22 67.4957 175.219 67.4944Z" fill="#FDFAF9"/>
<path d="M169.128 86.426C169.128 91.3376 164.841 95.3191 159.553 95.3191C154.265 95.3191 149.979 91.3376 149.979 86.426C149.979 81.5145 154.265 69.7872 159.553 69.7872C164.841 69.7872 169.128 81.5145 169.128 86.426Z" fill="#6529C6"/>
<path fill-rule="evenodd" clip-rule="evenodd" d="M172.957 86.426C172.957 93.714 166.685 99.1489 159.553 99.1489C152.421 99.1489 146.149 93.714 146.149 86.426C146.149 83.2089 147.446 78.4643 149.342 74.5834C150.31 72.6033 151.553 70.5953 153.083 69.0243C154.574 67.4931 156.762 65.9575 159.553 65.9575C162.344 65.9575 164.532 67.4931 166.024 69.0243C167.554 70.5953 168.797 72.6033 169.764 74.5834C171.661 78.4643 172.957 83.2089 172.957 86.426ZM159.553 95.3192C164.841 95.3192 169.128 91.3376 169.128 86.426C169.128 81.5145 164.841 69.7872 159.553 69.7872C154.265 69.7872 149.979 81.5145 149.979 86.426C149.979 91.3376 154.265 95.3192 159.553 95.3192Z" fill="#8C5ED4"/>
<path fill-rule="evenodd" clip-rule="evenodd" d="M159.182 77.4468C160.24 77.4468 161.097 78.3041 161.097 79.3617V85.0636L162.089 84.0715C162.837 83.3237 164.05 83.3237 164.797 84.0715C165.545 84.8193 165.545 86.0317 164.797 86.7795L161.097 90.4797V112.872C161.097 113.93 160.24 114.787 159.182 114.787C158.125 114.787 157.267 113.93 157.267 112.872V87.4435L154.369 84.5455C153.622 83.7977 153.622 82.5852 154.369 81.8374C155.117 81.0896 156.33 81.0896 157.077 81.8374L157.267 82.0274L157.267 79.3617C157.267 78.3041 158.125 77.4468 159.182 77.4468Z" fill="#6529C6"/>
</svg>
