<svg width="24" height="23" viewBox="0 0 24 23" fill="none" xmlns="http://www.w3.org/2000/svg">
<path d="M12.5 22.25L13.25 22.25L13.25 21.5L13.25 19.4546C13.5422 19.4081 13.9004 19.3284 14.2657 19.19C14.7107 19.0214 15.2058 18.7509 15.5943 18.3094C15.9962 17.8527 16.25 17.2504 16.25 16.5C16.25 15.785 16.0501 15.2007 15.7142 14.7426C15.3843 14.2928 14.9558 14.0084 14.5603 13.8286C14.2725 13.6978 13.99 13.6167 13.75 13.566L13.75 11.5L13.75 10.75L13 10.75L9.26404 10.75L8.51404 10.75L8.51404 11.4955L8.5139 11.5006C8.51364 11.5084 8.513 11.5233 8.51151 11.5443C8.50849 11.5865 8.5021 11.6518 8.48875 11.732C8.46145 11.896 8.40824 12.1032 8.30931 12.3013C8.21183 12.4965 8.07744 12.6687 7.89001 12.7938C7.70732 12.9158 7.43011 13.0227 6.99403 13.0227C6.55794 13.0227 6.28073 12.9158 6.09804 12.7938C5.91062 12.6687 5.77622 12.4965 5.67875 12.3013C5.57981 12.1032 5.5266 11.896 5.4993 11.732C5.48595 11.6518 5.47956 11.5865 5.47655 11.5443C5.47505 11.5233 5.47441 11.5084 5.47415 11.5006L5.47401 11.4955L5.47401 10.75L4.72401 10.75L2 10.75L1.25 10.75L1.25 11.5L1.25 20.5C1.25 21.4665 2.0335 22.25 3 22.25L12.5 22.25Z" fill="#FDFAF9" stroke="#6529C6" stroke-width="1.5"/>
<path d="M22.75 10.25L22.75 11L22.75 20.5C22.75 21.4665 21.9665 22.25 21 22.25L12.5 22.25L11.75 22.25L11.75 21.5L11.75 19.5L11.75 18.75L12.4944 18.75C12.4953 18.75 12.4965 18.7499 12.4981 18.7499C12.5058 18.7496 12.5213 18.7488 12.5434 18.7469C12.5878 18.7431 12.6575 18.7349 12.7435 18.7177C12.9184 18.6827 13.1443 18.6138 13.3641 18.4819C13.7553 18.2472 14.25 17.7459 14.25 16.5C14.25 15.2541 13.7553 14.7528 13.3641 14.5181C13.1443 14.3862 12.9184 14.3173 12.7435 14.2823C12.6575 14.2651 12.5878 14.2569 12.5434 14.2531C12.5213 14.2512 12.5058 14.2504 12.4981 14.2501C12.4968 14.2501 12.4957 14.25 12.4949 14.25M22.75 10.25L12.5 19.5C12.5 19.5 15 19.5 15 16.5C15 13.5 12.5 13.5 12.5 13.5M22.75 10.25L22 10.25L19.9869 10.25M22.75 10.25L19.9869 10.25M12.4949 14.25L12.4969 14.25L12.4983 14.25L12.4991 14.25M12.4949 14.25L12.4947 14.25L12.4927 14.25C12.4925 14.2499 12.4931 14.25 12.4944 14.25M12.4949 14.25C12.4947 14.25 12.4946 14.25 12.4944 14.25M12.4991 14.25L12.4944 14.25M12.4991 14.25C12.4996 14.25 12.5 14.25 12.5 13.5M12.4991 14.25L12.5 14.25L12.5 13.5M12.4944 14.25L11.75 14.25L11.75 13.5L11.75 11L11.75 10.25L12.5 10.25L14.2584 10.25M14.2584 10.25C14.2419 10.3584 14.2309 10.4588 14.2236 10.548C14.212 10.689 14.2091 10.8078 14.2092 10.8938C14.2093 10.937 14.2101 10.9722 14.2111 10.9983L14.2111 11L13.25 11L12.5 11L12.5 11.75L12.5 13.5M14.2584 10.25L14.9619 10.25L14.9619 10.7592L19.3607 10.25L19.9869 10.25M14.2584 10.25C14.2932 10.0211 14.3526 9.75652 14.454 9.48643C14.6036 9.0878 14.8566 8.64643 15.2863 8.30404C15.7263 7.95349 16.2978 7.75 17 7.75C18.4643 7.75 19.2734 8.61641 19.6748 9.41224C19.8254 9.71094 19.9233 10.0046 19.9869 10.25" fill="#FDFAF9" stroke="#6529C6" stroke-width="1.5"/>
<path d="M12.3226 0.75L11.5726 0.75L11.5726 1.5L11.5726 3.53579C11.2466 3.57988 10.8366 3.65876 10.4186 3.80172C9.47928 4.12298 8.25 4.87674 8.25 6.5C8.25 8.12326 9.47928 8.87702 10.4186 9.19827C10.8366 9.34122 11.2466 9.4201 11.5726 9.46419L11.5726 11L11.5726 11.75L12.3226 11.75L14 11.75L14.75 11.75L14.75 11.0033L14.7503 10.9913C14.7508 10.9782 14.7517 10.9554 14.754 10.9245C14.7584 10.8624 14.7676 10.7688 14.7867 10.6545C14.8254 10.4224 14.9013 10.1244 15.0458 9.83541C15.1888 9.54938 15.3916 9.28617 15.6817 9.09279C15.967 8.90254 16.3812 8.75 17 8.75C17.6188 8.75 18.033 8.90254 18.3183 9.09279C18.6084 9.28617 18.8112 9.54938 18.9542 9.83541C19.0987 10.1244 19.1746 10.4224 19.2133 10.6545C19.2324 10.7688 19.2416 10.8624 19.246 10.9245C19.2483 10.9554 19.2492 10.9782 19.2497 10.9913L19.25 11.0033L19.25 11.75L20 11.75L22 11.75L22.75 11.75L22.75 11L22.75 2.5C22.75 1.5335 21.9665 0.75 21 0.75L12.3226 0.75ZM19.25 11.0038L19.25 11.0035L19.25 11.0038Z" fill="#FDFAF9" stroke="#6529C6" stroke-width="1.5"/>
<path d="M1.25 11V11.75H2H3.32393C3.37537 12.0477 3.46437 12.4145 3.62019 12.7885C3.80849 13.2404 4.10758 13.734 4.58617 14.1169C5.07651 14.5092 5.71227 14.75 6.5 14.75C7.28773 14.75 7.92349 14.5092 8.41383 14.1169C8.89242 13.734 9.19151 13.2404 9.37981 12.7885C9.53563 12.4145 9.62463 12.0477 9.67607 11.75H11H11.75V11V9.5V8.75H11.0033L10.9913 8.74968C10.9782 8.74925 10.9554 8.74826 10.9245 8.74605C10.8624 8.74161 10.7688 8.73238 10.6545 8.71333C10.4224 8.67464 10.1244 8.59866 9.83541 8.45418C9.54938 8.31117 9.28617 8.10842 9.09279 7.81835C8.90254 7.53297 8.75 7.11876 8.75 6.5C8.75 5.88124 8.90254 5.46703 9.09279 5.18165C9.28617 4.89158 9.54938 4.68883 9.83541 4.54582C10.1244 4.40134 10.4224 4.32536 10.6545 4.28667C10.7688 4.26762 10.8624 4.25839 10.9245 4.25395C10.9554 4.25174 10.9782 4.25075 10.9913 4.25032L11.0033 4.25H11.75V3.5V1.5V0.75H11H3C2.0335 0.75 1.25 1.5335 1.25 2.5V11Z" fill="#FDFAF9" stroke="#6529C6" stroke-width="1.5"/>
</svg>
