<svg width="24" height="24" viewBox="0 0 24 24" fill="none" xmlns="http://www.w3.org/2000/svg">
<path d="M12.5 22.75L13.25 22.75L13.25 22L13.25 19.9546C13.5422 19.9081 13.9004 19.8284 14.2657 19.69C14.7107 19.5214 15.2058 19.2509 15.5943 18.8094C15.9962 18.3527 16.25 17.7504 16.25 17C16.25 16.285 16.0501 15.7007 15.7142 15.2426C15.3843 14.7928 14.9558 14.5084 14.5603 14.3286C14.2725 14.1978 13.99 14.1167 13.75 14.066L13.75 12L13.75 11.25L13 11.25L9.26404 11.25L8.51404 11.25L8.51404 11.9955L8.5139 12.0006C8.51364 12.0084 8.513 12.0233 8.51151 12.0443C8.50849 12.0865 8.5021 12.1518 8.48875 12.232C8.46145 12.396 8.40824 12.6032 8.30931 12.8013C8.21183 12.9965 8.07744 13.1687 7.89001 13.2938C7.70732 13.4158 7.43011 13.5227 6.99403 13.5227C6.55794 13.5227 6.28073 13.4158 6.09804 13.2938C5.91062 13.1687 5.77622 12.9965 5.67875 12.8013C5.57981 12.6032 5.5266 12.396 5.4993 12.232C5.48595 12.1518 5.47956 12.0865 5.47655 12.0443C5.47505 12.0233 5.47441 12.0084 5.47415 12.0006L5.47401 11.9955L5.47401 11.25L4.72401 11.25L2 11.25L1.25 11.25L1.25 12L1.25 21C1.25 21.9665 2.0335 22.75 3 22.75L12.5 22.75Z" fill="#222123" stroke="#FDFAF9" stroke-width="1.5"/>
<path d="M22.75 10.75L22.75 11.5L22.75 21C22.75 21.9665 21.9665 22.75 21 22.75L12.5 22.75L11.75 22.75L11.75 22L11.75 20L11.75 19.25L12.4944 19.25C12.4953 19.25 12.4965 19.2499 12.4981 19.2499C12.5058 19.2496 12.5213 19.2488 12.5434 19.2469C12.5878 19.2431 12.6575 19.2349 12.7435 19.2177C12.9184 19.1827 13.1443 19.1138 13.3641 18.9819C13.7553 18.7472 14.25 18.2459 14.25 17C14.25 15.7541 13.7553 15.2528 13.3641 15.0181C13.1443 14.8862 12.9184 14.8173 12.7435 14.7823C12.6575 14.7651 12.5878 14.7569 12.5434 14.7531C12.5213 14.7512 12.5058 14.7504 12.4981 14.7501C12.4968 14.7501 12.4957 14.75 12.4949 14.75M22.75 10.75L12.5 20C12.5 20 15 20 15 17C15 14 12.5 14 12.5 14M22.75 10.75L22 10.75L19.9869 10.75M22.75 10.75L19.9869 10.75M12.4949 14.75L12.4969 14.75L12.4983 14.75L12.4991 14.75M12.4949 14.75L12.4947 14.75L12.4927 14.75C12.4925 14.7499 12.4931 14.75 12.4944 14.75M12.4949 14.75C12.4947 14.75 12.4946 14.75 12.4944 14.75M12.4991 14.75L12.4944 14.75M12.4991 14.75C12.4996 14.75 12.5 14.75 12.5 14M12.4991 14.75L12.5 14.75L12.5 14M12.4944 14.75L11.75 14.75L11.75 14L11.75 11.5L11.75 10.75L12.5 10.75L14.2584 10.75M14.2584 10.75C14.2419 10.8584 14.2309 10.9588 14.2236 11.048C14.212 11.189 14.2091 11.3078 14.2092 11.3938C14.2093 11.437 14.2101 11.4722 14.2111 11.4983L14.2111 11.5L13.25 11.5L12.5 11.5L12.5 12.25L12.5 14M14.2584 10.75L14.9619 10.75L14.9619 11.2592L19.3607 10.75L19.9869 10.75M14.2584 10.75C14.2932 10.5211 14.3526 10.2565 14.454 9.98643C14.6036 9.5878 14.8566 9.14643 15.2863 8.80404C15.7263 8.45349 16.2978 8.25 17 8.25C18.4643 8.25 19.2734 9.11641 19.6748 9.91224C19.8254 10.2109 19.9233 10.5046 19.9869 10.75" fill="#222123" stroke="#FDFAF9" stroke-width="1.5"/>
<path d="M12.3226 1.25L11.5726 1.25L11.5726 2L11.5726 4.03579C11.2466 4.07988 10.8366 4.15876 10.4186 4.30172C9.47928 4.62298 8.25 5.37674 8.25 7C8.25 8.62326 9.47928 9.37702 10.4186 9.69827C10.8366 9.84122 11.2466 9.9201 11.5726 9.96419L11.5726 11.5L11.5726 12.25L12.3226 12.25L14 12.25L14.75 12.25L14.75 11.5033L14.7503 11.4913C14.7508 11.4782 14.7517 11.4554 14.754 11.4245C14.7584 11.3624 14.7676 11.2688 14.7867 11.1545C14.8254 10.9224 14.9013 10.6244 15.0458 10.3354C15.1888 10.0494 15.3916 9.78617 15.6817 9.59279C15.967 9.40254 16.3812 9.25 17 9.25C17.6188 9.25 18.033 9.40254 18.3183 9.59279C18.6084 9.78617 18.8112 10.0494 18.9542 10.3354C19.0987 10.6244 19.1746 10.9224 19.2133 11.1545C19.2324 11.2688 19.2416 11.3624 19.246 11.4245C19.2483 11.4554 19.2492 11.4782 19.2497 11.4913L19.25 11.5033L19.25 12.25L20 12.25L22 12.25L22.75 12.25L22.75 11.5L22.75 3C22.75 2.0335 21.9665 1.25 21 1.25L12.3226 1.25ZM19.25 11.5038L19.25 11.5035L19.25 11.5038Z" fill="#222123" stroke="#FDFAF9" stroke-width="1.5"/>
<path d="M1.25 11.5V12.25H2H3.32393C3.37537 12.5477 3.46437 12.9145 3.62019 13.2885C3.80849 13.7404 4.10758 14.234 4.58617 14.6169C5.07651 15.0092 5.71227 15.25 6.5 15.25C7.28773 15.25 7.92349 15.0092 8.41383 14.6169C8.89242 14.234 9.19151 13.7404 9.37981 13.2885C9.53563 12.9145 9.62463 12.5477 9.67607 12.25H11H11.75V11.5V10V9.25H11.0033L10.9913 9.24968C10.9782 9.24925 10.9554 9.24826 10.9245 9.24605C10.8624 9.24161 10.7688 9.23238 10.6545 9.21333C10.4224 9.17464 10.1244 9.09866 9.83541 8.95418C9.54938 8.81117 9.28617 8.60842 9.09279 8.31835C8.90254 8.03297 8.75 7.61876 8.75 7C8.75 6.38124 8.90254 5.96703 9.09279 5.68165C9.28617 5.39158 9.54938 5.18883 9.83541 5.04582C10.1244 4.90134 10.4224 4.82536 10.6545 4.78667C10.7688 4.76762 10.8624 4.75839 10.9245 4.75395C10.9554 4.75174 10.9782 4.75075 10.9913 4.75032L11.0033 4.75H11.75V4V2V1.25H11H3C2.0335 1.25 1.25 2.0335 1.25 3V11.5Z" fill="#222123" stroke="#FDFAF9" stroke-width="1.5"/>
</svg>
