<svg width="18" height="18" viewBox="0 0 18 18" fill="none" xmlns="http://www.w3.org/2000/svg">
<path d="M9.22353 12.6088C9.7578 12.8384 10.1749 12.9755 10.5002 13.0782C11.0366 13.2477 11.5248 13.2239 11.9107 13.1665C12.341 13.1025 13.2356 12.6274 13.4223 12.1067C13.6088 11.5861 13.6088 11.1399 13.5528 11.0469C13.4969 10.954 13.3475 10.8982 13.1236 10.7867C12.8997 10.6752 11.7987 10.1359 11.5934 10.0616C11.3882 9.98726 11.2389 9.95008 11.0896 10.1732C10.9403 10.3963 10.5111 10.8982 10.3805 11.0469C10.2499 11.1957 10.1193 11.2143 9.89535 11.1028C9.67141 10.9913 8.9498 10.7558 8.09441 9.99649C7.42872 9.40569 6.97933 8.67573 6.84866 8.45278C6.71803 8.22956 6.83476 8.10888 6.94686 7.99785C7.04759 7.89804 7.17084 7.7375 7.28277 7.60746C7.39474 7.47715 7.43209 7.38423 7.50671 7.23558C7.58133 7.08689 7.54402 6.95667 7.48806 6.84515C7.43209 6.73358 6.98421 5.63657 6.79758 5.19044C6.61584 4.7558 6.43116 4.81467 6.29374 4.80778C6.16325 4.80128 6.01379 4.8 5.86455 4.8C5.71528 4.8 5.47264 4.85574 5.2674 5.07874C5.06211 5.30196 4.4836 5.84105 4.4836 6.93801C4.4836 8.03498 5.28605 9.09486 5.39802 9.24347C5.50999 9.39216 6.97711 11.6434 9.22353 12.6088ZM9.04063 1.50641C11.0303 1.50716 12.9006 2.27937 14.307 3.68058C15.7135 5.08183 16.4876 6.94456 16.4868 8.92543C16.4852 13.0133 13.1435 16.3388 9.03765 16.3388H9.03463C7.69792 16.3384 6.38692 15.9811 5.24319 15.3056L4.97119 15.1449L2.15182 15.881L2.90439 13.1452L2.72726 12.8648C1.98153 11.6844 1.58775 10.3202 1.58832 8.91946C1.58997 4.83187 4.93171 1.50641 9.04063 1.50641ZM4.75103 16.7597C6.06007 17.4702 7.53402 17.8448 9.03405 17.8453H9.03765C13.9771 17.8453 17.998 13.8438 18 8.92605C18.0009 6.5428 17.0696 4.30175 15.3774 2.61584C13.6853 0.929836 11.4351 0.00101665 9.03756 0C4.09759 0 0.0771052 4.00113 0.0750621 8.9188C0.0744403 10.4909 0.487189 12.0254 1.27142 13.3779L0 18L4.75103 16.7597Z" fill="#222123"/>
</svg>
