<svg width="69" height="69" viewBox="0 0 69 69" fill="none" xmlns="http://www.w3.org/2000/svg">
<g clip-path="url(#clip0)">
<path d="M0 0H69V69H14.375C6.43591 69 0 62.5641 0 54.625V0Z" fill="#FDFAF9"/>
<path d="M34.5 12.9375C22.5975 12.9375 12.9375 22.5975 12.9375 34.5C12.9375 46.4025 22.5975 56.0625 34.5 56.0625C46.4025 56.0625 56.0625 46.4025 56.0625 34.5C56.0625 22.5975 46.4025 12.9375 34.5 12.9375ZM42.2841 26.6081C44.5913 26.6081 46.4456 28.4625 46.4456 30.7697C46.4456 33.0769 44.5913 34.9312 42.2841 34.9312C39.9769 34.9312 38.1225 33.0769 38.1225 30.7697C38.1009 28.4625 39.9769 26.6081 42.2841 26.6081ZM29.3466 23.2013C32.1497 23.2013 34.4353 25.4869 34.4353 28.29C34.4353 31.0931 32.1497 33.3787 29.3466 33.3787C26.5434 33.3787 24.2578 31.0931 24.2578 28.29C24.2578 25.4653 26.5219 23.2013 29.3466 23.2013ZM29.3466 42.8878V50.9737C24.1716 49.3566 20.0747 45.3675 18.2634 40.2788C20.5275 37.8638 26.1769 36.6347 29.3466 36.6347C30.4894 36.6347 31.9341 36.8072 33.4434 37.1091C29.9072 38.985 29.3466 41.4647 29.3466 42.8878ZM34.5 51.75C33.9178 51.75 33.3572 51.7284 32.7966 51.6637V42.8878C32.7966 39.8259 39.1359 38.295 42.2841 38.295C44.5913 38.295 48.5803 39.1359 50.5641 40.7747C48.0413 47.1787 41.8097 51.75 34.5 51.75Z" fill="#222123"/>
</g>
<defs>
<clipPath id="clip0">
<path d="M0 0H69V69H14.375C6.43591 69 0 62.5641 0 54.625V0Z" fill="white"/>
</clipPath>
</defs>
</svg>
