<svg width="25" height="25" viewBox="0 0 25 25" fill="none" xmlns="http://www.w3.org/2000/svg">
<g clip-path="url(#clip0)">
<path fill-rule="evenodd" clip-rule="evenodd" d="M19.1627 19.6481C19.7031 20.1906 20.0369 19.8048 20.4806 19.3621C20.9244 18.9194 21.3091 18.5846 20.7687 18.0432C20.7687 18.0432 13.2356 10.5173 11.3752 8.66199L9.76929 10.2669L19.1627 19.6481Z" fill="#222123"/>
<path fill-rule="evenodd" clip-rule="evenodd" d="M6.77839 11.5736L7.40326 10.9589C7.40326 10.9589 7.12746 10.2028 7.53149 9.84048C7.93552 9.47818 8.61738 9.70207 8.61738 9.70207L10.8105 7.58219C10.8105 7.58219 10.6569 6.48002 10.8604 6.27647C11.0639 6.07293 13.3385 4.96465 13.5583 4.74279L13.0912 4.27567C13.0912 4.27567 9.90783 4.65832 9.56283 5.00231C9.36031 5.20585 7.84494 6.73648 6.76414 7.81728C6.76414 7.81728 7.03485 8.58972 6.67865 8.94592C6.32144 9.30313 5.51745 9.04769 5.51745 9.04769L4.88342 9.6807C4.61576 9.95039 4.77351 10.329 5.10223 10.6577L5.80037 11.3558C6.13113 11.6856 6.51073 11.8413 6.77839 11.5736Z" fill="#222123"/>
<path fill-rule="evenodd" clip-rule="evenodd" d="M16.6348 10.0471C17.7309 10.5671 19.1058 10.4073 20.0156 9.49751C20.7178 8.79529 20.9967 7.82949 20.8471 6.92169L19.2991 8.46759L17.9822 8.79427L16.4943 7.32674L16.8434 5.96607L18.3771 4.45172C17.4683 4.30314 16.4414 4.51787 15.7392 5.22111C14.8284 6.13195 14.7042 7.54046 15.2242 8.63755L14.2126 9.64813L15.6252 11.0576L16.6348 10.0471Z" fill="#222123"/>
<path fill-rule="evenodd" clip-rule="evenodd" d="M12.2578 14.7326L10.7261 13.202L9.39499 14.5341C9.31636 14.6114 9.25376 14.7034 9.21079 14.8049C9.13242 14.7743 9.08866 14.7733 9.06118 14.7845C8.80221 14.6943 8.53038 14.6466 8.25618 14.643C6.85073 14.643 5.71191 15.7676 5.71191 17.1558C5.71191 18.5439 6.85073 19.6685 8.25618 19.6685C9.66163 19.6685 10.8004 18.5439 10.8004 17.1558C10.8004 16.8677 10.7404 16.595 10.6519 16.3375C10.6468 16.3131 10.6458 16.2907 10.6315 16.2551C10.7412 16.2119 10.8409 16.1468 10.9246 16.0638L12.2578 14.7326ZM8.25618 18.6192C7.4298 18.6192 6.76117 17.9648 6.76117 17.1558C6.76117 16.3467 7.42878 15.6923 8.25618 15.6923C9.08357 15.6923 9.75119 16.3467 9.75119 17.1558C9.75119 17.9648 9.08255 18.6192 8.25618 18.6192Z" fill="#222123"/>
</g>
<defs>
<clipPath id="clip0">
<rect width="16.2833" height="16.2833" fill="white" transform="translate(4.69409 3.41672)"/>
</clipPath>
</defs>
</svg>
