<svg width="25" height="25" viewBox="0 0 25 25" fill="none" xmlns="http://www.w3.org/2000/svg">
<g clip-path="url(#clip0)">
<path fill-rule="evenodd" clip-rule="evenodd" d="M19.1627 19.6481C19.7031 20.1905 20.0369 19.8048 20.4807 19.3621C20.9244 18.9194 21.3091 18.5846 20.7687 18.0431C20.7687 18.0431 13.2356 10.5172 11.3753 8.66193L9.76932 10.2668L19.1627 19.6481Z" fill="#FDFAF9"/>
<path fill-rule="evenodd" clip-rule="evenodd" d="M6.7783 11.5736L7.40317 10.9589C7.40317 10.9589 7.12737 10.2028 7.5314 9.84045C7.93543 9.47815 8.6173 9.70204 8.6173 9.70204L10.8105 7.58216C10.8105 7.58216 10.6568 6.47998 10.8603 6.27644C11.0639 6.0729 13.3384 4.96462 13.5583 4.74276L13.0911 4.27563C13.0911 4.27563 9.90775 4.65829 9.56274 5.00228C9.36022 5.20582 7.84486 6.73645 6.76405 7.81725C6.76405 7.81725 7.03476 8.58969 6.67857 8.94589C6.32135 9.3031 5.51736 9.04766 5.51736 9.04766L4.88333 9.68067C4.61568 9.95036 4.77342 10.3289 5.10214 10.6577L5.80029 11.3558C6.13104 11.6855 6.51064 11.8413 6.7783 11.5736Z" fill="#FDFAF9"/>
<path fill-rule="evenodd" clip-rule="evenodd" d="M16.6348 10.0471C17.7308 10.5671 19.1058 10.4073 20.0156 9.49751C20.7178 8.79529 20.9967 7.82949 20.8471 6.92169L19.2991 8.46759L17.9822 8.79427L16.4943 7.32674L16.8434 5.96607L18.3771 4.45172C17.4683 4.30314 16.4414 4.51787 15.7392 5.22111C14.8283 6.13195 14.7042 7.54046 15.2242 8.63755L14.2126 9.64813L15.6252 11.0576L16.6348 10.0471Z" fill="#FDFAF9"/>
<path fill-rule="evenodd" clip-rule="evenodd" d="M12.2576 14.7325L10.726 13.2019L9.39482 14.5341C9.31619 14.6113 9.25359 14.7033 9.21062 14.8048C9.13225 14.7743 9.08849 14.7732 9.06101 14.7844C8.80204 14.6943 8.53021 14.6465 8.25601 14.643C6.85056 14.643 5.71174 15.7675 5.71174 17.1557C5.71174 18.5438 6.85056 19.6684 8.25601 19.6684C9.66146 19.6684 10.8003 18.5438 10.8003 17.1557C10.8003 16.8677 10.7402 16.5949 10.6517 16.3375C10.6466 16.313 10.6456 16.2906 10.6313 16.255C10.741 16.2118 10.8407 16.1467 10.9244 16.0637L12.2576 14.7325ZM8.25601 18.6192C7.42963 18.6192 6.761 17.9648 6.761 17.1557C6.761 16.3466 7.42861 15.6922 8.25601 15.6922C9.0834 15.6922 9.75102 16.3466 9.75102 17.1557C9.75102 17.9648 9.08239 18.6192 8.25601 18.6192Z" fill="#FDFAF9"/>
</g>
<defs>
<clipPath id="clip0">
<rect width="16.2833" height="16.2833" fill="white" transform="translate(4.69403 3.41669)"/>
</clipPath>
</defs>
</svg>
