<svg width="20" height="23" viewBox="0 0 20 23" fill="none" xmlns="http://www.w3.org/2000/svg">
<path fill-rule="evenodd" clip-rule="evenodd" d="M19.6402 15.9547V1.63143C19.6402 1.06447 19.1841 0.608337 18.6171 0.608337H4.63486C2.37554 0.608337 0.542501 2.44137 0.542501 4.7007V18.3419C0.542501 20.6012 2.37554 22.4343 4.63486 22.4343H18.6171C19.1841 22.4343 19.6402 21.9781 19.6402 21.4112V20.7291C19.6402 20.4094 19.3631 19.932 18.6171 19.932C18.4381 19.2755 18.4381 17.4041 18.6171 16.7476C19.2992 16.7476 19.6402 16.2744 19.6402 15.9547ZM4.63465 20.2282H16.8009C16.7199 19.4993 16.7199 18.229 16.8009 17.5H4.63465C3.88438 17.5 3.27053 18.1139 3.27053 18.8641C3.27053 19.6187 3.88012 20.2282 4.63465 20.2282ZM5.66652 3.78125C5.66652 3.62656 5.78706 3.5 5.93438 3.5H15.3987C15.546 3.5 15.6665 3.62656 15.6665 3.78125V4.71875C15.6665 4.87344 15.546 5 15.3987 5H5.93438C5.78706 5 5.66652 4.87344 5.66652 4.71875V3.78125ZM5.93438 6C5.78706 6 5.66652 6.12656 5.66652 6.28125V7.21875C5.66652 7.37344 5.78706 7.5 5.93438 7.5H15.3987C15.546 7.5 15.6665 7.37344 15.6665 7.21875V6.28125C15.6665 6.12656 15.546 6 15.3987 6H5.93438ZM5.66652 8.78125C5.66652 8.62656 5.73885 8.5 5.82724 8.5H11.5058C11.5942 8.5 11.6665 8.62656 11.6665 8.78125V9.71875C11.6665 9.87344 11.5942 10 11.5058 10H5.82724C5.73885 10 5.66652 9.87344 5.66652 9.71875V8.78125Z" fill="#FDFAF9"/>
</svg>
