<svg width="24" height="24" viewBox="0 0 24 24" fill="none" xmlns="http://www.w3.org/2000/svg">
<g clip-path="url(#clip0)">
<path d="M20.9735 16.4547V2.13146C20.9735 1.5645 20.5174 1.10837 19.9505 1.10837H5.96822C3.70889 1.10837 1.87585 2.94141 1.87585 5.20073V18.8419C1.87585 21.1013 3.70889 22.9343 5.96822 22.9343H19.9505C20.5174 22.9343 20.9735 22.4782 20.9735 21.9112V21.2292C20.9735 20.9094 20.6965 20.432 19.9505 20.432C19.7714 19.7755 19.7714 17.9041 19.9505 17.2476C20.6325 17.2476 20.9735 16.7744 20.9735 16.4547Z" fill="#222123"/>
<path d="M5.968 20.7283H18.1343C18.0533 19.9993 18.0533 18.729 18.1343 18H5.968C5.21774 18 4.60388 18.6139 4.60388 19.3642C4.60388 20.1187 5.21347 20.7283 5.968 20.7283Z" fill="#FDFAF9"/>
<path d="M7.26774 4.00003C7.12041 4.00003 6.99988 4.12659 6.99988 4.28128V5.21878C6.99988 5.37347 7.12041 5.50003 7.26774 5.50003H16.732C16.8793 5.50003 16.9999 5.37347 16.9999 5.21878V4.28128C16.9999 4.12659 16.8793 4.00003 16.732 4.00003H7.26774Z" fill="#FDFAF9"/>
<path d="M7.26774 6.50003C7.12041 6.50003 6.99988 6.62659 6.99988 6.78128V7.71878C6.99988 7.87347 7.12041 8.00003 7.26774 8.00003H16.732C16.8793 8.00003 16.9999 7.87347 16.9999 7.71878V6.78128C16.9999 6.62659 16.8793 6.50003 16.732 6.50003H7.26774Z" fill="#FDFAF9"/>
<path d="M7.16059 9.00003C7.0722 9.00003 6.99988 9.12659 6.99988 9.28128V10.2188C6.99988 10.3735 7.0722 10.5 7.16059 10.5H12.8392C12.9276 10.5 12.9999 10.3735 12.9999 10.2188V9.28128C12.9999 9.12659 12.9276 9.00003 12.8392 9.00003H7.16059Z" fill="#FDFAF9"/>
</g>
<defs>
<clipPath id="clip0">
<rect width="19.0977" height="21.8259" fill="white" transform="translate(1.87585 1.10837)"/>
</clipPath>
</defs>
</svg>
