<svg width="49" height="50" viewBox="0 0 49 50" fill="none" xmlns="http://www.w3.org/2000/svg">
<path d="M6.18966 35.4483L42.8103 35.4483C43.9293 35.4483 44.8448 36.3638 44.8448 37.4828C44.8448 38.6017 43.9293 39.5172 42.8103 39.5172L6.18966 39.5172C5.07069 39.5172 4.15517 38.6017 4.15517 37.4828C4.15517 36.3638 5.07069 35.4483 6.18966 35.4483ZM28.2434 16.7107C28.5065 16.0911 28.6123 15.4161 28.5513 14.7458C28.4903 14.0755 28.2644 13.4306 27.8939 12.8687C27.5233 12.3068 27.0195 11.8453 26.4273 11.5253C25.8352 11.2053 25.1731 11.0366 24.5 11.0345C23.8269 11.0366 23.1648 11.2053 22.5727 11.5253C21.9805 11.8453 21.4767 12.3068 21.1061 12.8687C20.7356 13.4306 20.5097 14.0755 20.4487 14.7458C20.3877 15.4161 20.4935 16.0911 20.7566 16.7107C12.8017 18.3586 6.73897 25.1334 6.18966 33.4138L42.8103 33.4138C42.261 25.1334 36.1983 18.3586 28.2434 16.7107Z" fill="#FDFAF9"/>
</svg>
