<svg width="21" height="23" viewBox="0 0 21 23" fill="none" xmlns="http://www.w3.org/2000/svg">
<path fill-rule="evenodd" clip-rule="evenodd" d="M10.9343 4.94726C9.69315 4.94255 8.72843 3.96724 8.72961 2.72016C8.73078 1.44956 9.71433 0.487188 10.9991 0.500129C12.2297 0.511894 13.185 1.50132 13.1767 2.75428C13.1673 3.99077 12.1838 4.95196 10.9343 4.94726ZM17.4021 2.93559C17.1598 2.71919 16.7879 2.7402 16.5715 2.98252L15.4744 4.21102C15.258 4.45334 15.279 4.8252 15.5214 5.0416L15.6969 5.19833C15.9392 5.41473 16.311 5.39372 16.5274 5.1514L16.9193 4.7126L17.2003 4.96353C17.0236 5.18247 16.8391 5.45192 16.6402 5.74262C16.2755 6.27538 15.8619 6.87951 15.3576 7.37492C12.414 4.95841 9.46221 4.93841 6.46334 7.41845C5.93392 6.68668 4.89861 5.23489 4.89861 5.23489C4.89861 5.23489 4.85596 5.14223 4.77413 5.02065L4.97801 4.88706L5.30019 5.37878C5.47824 5.65052 5.84287 5.72647 6.11461 5.54842L6.31143 5.41947C6.58317 5.24142 6.65912 4.87679 6.48107 4.60504L5.57838 3.22735C5.40033 2.95561 5.0357 2.87966 4.76395 3.05771L4.56714 3.18667C4.2954 3.36472 4.21945 3.72935 4.3975 4.00109L4.72009 4.49344L4.45707 4.66577C4.37362 4.59818 4.27903 4.53952 4.17389 4.50076C3.39741 4.35605 2.97623 4.65959 2.85387 5.41842C2.83899 5.51063 2.85053 5.6077 2.8763 5.70153L2.55528 5.91187L2.23275 5.41962C2.0547 5.14788 1.69007 5.07193 1.41833 5.24998L1.22152 5.37893C0.949776 5.55699 0.873825 5.92162 1.05188 6.19336L1.95457 7.57105C2.13262 7.84279 2.49725 7.91874 2.76899 7.74069L2.9658 7.61173C3.23755 7.43368 3.3135 7.06905 3.13545 6.79731L2.8132 6.30549L3.08228 6.12919C3.12863 6.19852 3.16329 6.24079 3.16329 6.24079C3.16329 6.24079 4.49037 8.03376 5.18097 8.87612C5.77156 9.59731 6.32922 9.68908 7.14335 9.25142C7.40921 9.10807 7.65618 8.93048 7.90307 8.75294C8.00471 8.67986 8.10633 8.60679 8.20925 8.53612C8.3038 8.4713 8.39687 8.40402 8.4907 8.33618C8.54164 8.29936 8.5928 8.26237 8.64455 8.22552C8.90573 11.3315 8.77985 14.3362 8.28572 17.3327C8.05502 18.732 7.92143 20.1483 7.78812 21.5616L7.78218 21.6246C7.71748 22.3187 8.13984 22.8022 8.74102 22.854C9.43397 22.9128 9.90457 22.5093 9.99516 21.774C10.0671 21.1901 10.1384 20.6062 10.2097 20.0224C10.3367 18.9828 10.4637 17.9434 10.594 16.9045C10.6521 16.4384 10.7175 15.9729 10.7829 15.5076C10.8127 15.2952 10.8425 15.0827 10.8716 14.8703C11.0034 14.9527 11.0364 15.035 11.0469 15.1197C11.1626 16.0536 11.2773 16.9874 11.392 17.9213C11.5525 19.2287 11.713 20.536 11.8764 21.8434C11.9587 22.5022 12.4305 22.8858 13.0811 22.8528C13.7811 22.8175 14.1788 22.2704 14.0776 21.3728C14.0484 21.1145 14.0197 20.8561 13.991 20.5977C13.8284 19.1337 13.6656 17.6682 13.4246 16.2162C12.9905 13.5997 13.0623 10.9762 13.1717 8.34788C13.1725 8.33222 13.1999 8.31828 13.2223 8.3069C13.2319 8.30203 13.2405 8.29763 13.2458 8.29376C13.3938 8.39553 13.5393 8.50045 13.6844 8.6051C14.0006 8.83314 14.3151 9.05993 14.6505 9.25025C15.4788 9.72084 16.0635 9.63025 16.6659 8.89259C16.7108 8.83754 16.7577 8.78028 16.8061 8.72109C17.3852 8.01335 18.1897 7.03014 18.652 6.25993L18.8498 6.4366L18.4578 6.8755C18.2414 7.11782 18.2624 7.48968 18.5048 7.70608L18.6803 7.86281C18.9226 8.07921 19.2944 8.0582 19.5108 7.81589L20.608 6.58738C20.8244 6.34506 20.8033 5.9732 20.561 5.7568L20.3855 5.60007C20.1432 5.38367 19.7713 5.40468 19.5549 5.647L19.1632 6.0856L18.8809 5.83342C18.9516 5.67883 18.998 5.54082 19.0129 5.42548C19.1106 4.67253 18.3459 4.14311 17.7047 4.49252C17.6443 4.52544 17.5838 4.56858 17.5228 4.62059L17.2328 4.3616L17.6246 3.9229C17.841 3.68058 17.8199 3.30872 17.5776 3.09232L17.4021 2.93559Z" fill="#FDFAF9"/>
</svg>
