<svg width="24" height="24" viewBox="0 0 24 24" fill="none" xmlns="http://www.w3.org/2000/svg">
<rect x="6.40942" y="4.54178" width="0.470596" height="4.11771" rx="0.0588244" transform="rotate(56.7663 6.40942 4.54178)" fill="#222123"/>
<rect x="20.7777" y="7.13434" width="0.470596" height="4.11771" rx="0.0588244" transform="rotate(131.766 20.7777 7.13434)" fill="#222123"/>
<rect x="1.72949" y="6.20132" width="1.41179" height="2.82357" rx="0.588244" transform="rotate(-33.2337 1.72949 6.20132)" fill="#222123"/>
<rect x="17.9634" y="3.04376" width="1.41179" height="2.82357" rx="0.588244" transform="rotate(41.7663 17.9634 3.04376)" fill="#222123"/>
<rect x="7.80347" y="5.59708" width="1.41179" height="2.82357" rx="0.588244" transform="rotate(146.766 7.80347 5.59708)" fill="#222123"/>
<rect x="20.119" y="8.75464" width="1.41179" height="2.82357" rx="0.588244" transform="rotate(-138.234 20.119 8.75464)" fill="#222123"/>
<path d="M11.9344 5.44726C10.6932 5.44255 9.72844 4.46724 9.72962 3.22016C9.73079 1.94956 10.7143 0.987188 11.9991 1.00013C13.2297 1.01189 14.185 2.00132 14.1767 3.25428C14.1673 4.49077 13.1838 5.45196 11.9344 5.44726Z" fill="#222123"/>
<path d="M5.89862 5.73489C5.89862 5.73489 6.93393 7.18668 7.46335 7.91845C10.4622 5.43841 13.414 5.45841 16.3576 7.87492C17.4072 6.84389 18.0635 5.34194 18.7047 4.99252C19.3459 4.64311 20.1106 5.17253 20.013 5.92548C19.9153 6.67843 18.4786 8.39719 17.6659 9.39259C17.0635 10.1303 16.4788 10.2208 15.6505 9.75025C15.1611 9.4726 14.7164 9.11729 14.2458 8.79376C14.2282 8.8067 14.1729 8.82553 14.1717 8.84788C14.0623 11.4762 13.9905 14.0997 14.4246 16.7162C14.7082 18.4245 14.8835 20.1516 15.0776 21.8728C15.1788 22.7704 14.7811 23.3175 14.0811 23.3528C13.4305 23.3858 12.9587 23.0022 12.8764 22.3434C12.5964 20.1022 12.3246 17.861 12.0469 15.6197C12.0364 15.535 12.0034 15.4527 11.8716 15.3703C11.7787 16.048 11.6787 16.7256 11.594 17.4045C11.3905 19.0269 11.1952 20.6504 10.9952 22.274C10.9046 23.0093 10.434 23.4128 9.74103 23.354C9.13984 23.3022 8.71748 22.8187 8.78219 22.1246C8.91749 20.6904 9.05161 19.2527 9.28573 17.8327C9.77985 14.8362 9.90574 11.8315 9.64456 8.72552C9.4975 8.83023 9.35514 8.93612 9.20926 9.03612C8.85631 9.27847 8.51866 9.54907 8.14336 9.75142C7.32923 10.1891 6.77157 10.0973 6.18097 9.37612C5.49037 8.53376 4.16329 6.74079 4.16329 6.74079C4.16329 6.74079 3.79389 6.29019 3.85388 5.91842C3.97623 5.15959 4.39742 4.85605 5.1739 5.00076C5.63978 5.17253 5.89862 5.73489 5.89862 5.73489Z" fill="#222123"/>
</svg>
