<svg width="18" height="18" viewBox="0 0 18 18" fill="none" xmlns="http://www.w3.org/2000/svg">
<path d="M13.3218 11.0397C13.3218 11.8282 13.5458 12.1427 14.1318 12.1427C15.4377 12.1427 16.2693 10.4765 16.2693 7.70557C16.2693 3.47027 13.1868 1.44274 9.33832 1.44274C5.37925 1.44274 1.77832 4.10106 1.77832 9.12484C1.77832 13.9233 4.92832 16.5366 9.76582 16.5366C11.4083 16.5366 12.5108 16.3564 14.1974 15.7932L14.5593 17.3016C12.8943 17.8432 11.1149 18 9.74332 18C3.39832 18 -0.00012207 14.5081 -0.00012207 9.1239C-0.00012207 3.69462 3.93832 0 9.36082 0C15.0083 0 17.9999 3.37922 17.9999 7.52441C17.9999 11.0388 16.8983 13.7196 13.4333 13.7196C11.8574 13.7196 10.8233 13.0889 10.6883 11.6912C10.2833 13.2456 9.20332 13.7196 7.73988 13.7196C5.78238 13.7196 4.13988 12.2093 4.13988 9.16896C4.13988 6.10513 5.58082 4.21277 8.16832 4.21277C9.54082 4.21277 10.3958 4.75344 10.7764 5.60951L11.4299 4.41552H13.3199V11.0397H13.3218ZM10.5552 8.06602C10.5552 6.82791 9.63175 6.30882 8.86675 6.30882C8.03425 6.30882 7.11269 6.98373 7.11269 8.96715C7.11269 10.5441 7.81019 11.4227 8.86675 11.4227C9.60925 11.4227 10.5552 10.9496 10.5552 9.64299V8.06602Z" fill="#222123"/>
</svg>
