<svg width="18" height="17" viewBox="0 0 18 17" fill="none" xmlns="http://www.w3.org/2000/svg">
<path d="M9.17575 11.3402C9.59624 11.5209 9.92455 11.6288 10.1805 11.7097C10.6027 11.8431 10.987 11.8243 11.2906 11.7791C11.6293 11.7288 12.3334 11.3548 12.4803 10.945C12.6271 10.5353 12.6271 10.1841 12.5831 10.1109C12.539 10.0378 12.4215 9.99388 12.2453 9.90618C12.069 9.81841 11.2025 9.39395 11.0409 9.33544C10.8794 9.27696 10.7619 9.2477 10.6444 9.42331C10.5269 9.59886 10.1891 9.99388 10.0863 10.1109C9.98356 10.2281 9.88075 10.2427 9.7045 10.1549C9.52825 10.0672 8.96032 9.88183 8.2871 9.28423C7.76317 8.81924 7.40949 8.24474 7.30665 8.06927C7.20384 7.89358 7.2957 7.79861 7.38393 7.71122C7.46322 7.63267 7.56022 7.50632 7.64831 7.40397C7.73643 7.30141 7.76583 7.22829 7.82456 7.11129C7.88328 6.99426 7.85392 6.89178 7.80988 6.804C7.76583 6.7162 7.41333 5.85281 7.26645 5.50169C7.12341 5.15961 6.97806 5.20595 6.8699 5.20052C6.7672 5.19541 6.64957 5.1944 6.53212 5.1944C6.41463 5.1944 6.22367 5.23827 6.06214 5.41378C5.90057 5.58946 5.44526 6.01374 5.44526 6.87709C5.44526 7.74045 6.07682 8.57461 6.16494 8.69157C6.25307 8.8086 7.40774 10.5804 9.17575 11.3402ZM9.03181 2.60222C10.5977 2.60282 12.0698 3.21057 13.1767 4.31338C14.2836 5.41621 14.8928 6.88224 14.8922 8.44126C14.8909 11.6586 12.2609 14.2759 9.02946 14.2759H9.02709C7.97504 14.2755 6.94324 13.9943 6.04308 13.4627L5.82901 13.3362L3.61006 13.9155L4.20236 11.7624L4.06296 11.5417C3.47604 10.6127 3.16612 9.53899 3.16657 8.43657C3.16787 5.21948 5.79794 2.60222 9.03181 2.60222ZM5.65574 14.6071C6.686 15.1663 7.84605 15.4611 9.02663 15.4615H9.02946C12.917 15.4615 16.0816 12.3122 16.0832 8.44175C16.0839 6.56605 15.3509 4.80226 14.0191 3.47539C12.6874 2.14844 10.9163 1.41743 9.02939 1.41663C5.14146 1.41663 1.97719 4.56566 1.97558 8.43605C1.97509 9.67337 2.29994 10.8811 2.91716 11.9455L1.9165 15.5833L5.65574 14.6071Z" fill="#222123"/>
</svg>
